<?xml version="1.0" encoding="utf-8"?>
<!-- Generator: Adobe Illustrator 24.2.3, SVG Export Plug-In . SVG Version: 6.00 Build 0)  -->
<svg version="1.1" id="Capa_1" xmlns="http://www.w3.org/2000/svg" xmlns:xlink="http://www.w3.org/1999/xlink" x="0px" y="0px"
	 viewBox="0 0 365.8 396.35" enable-background="new 0 0 365.8 396.35" xml:space="preserve">
<g>
	<g>
		<path fill="none" stroke="#000000" stroke-miterlimit="10" d="M64.4,306.8v39.47h1.47c4.29,0,8.57,0,12.86,0h1.47v-1.42
			c0-12.21,0-24.43,0-36.64v-1.42H64.4z"/>
	</g>
</g>
<g>
	<g>
		<path fill="none" stroke="#000000" stroke-miterlimit="10" d="M118.33,326.23l10.74-19.44h-15.54l-3.61,5.59l-3.62-5.59H90.77
			l10.73,19.45l-11.07,20.03h2.45c4.29,0,8.57,0,12.86,0h0.87l3.31-5.89l3.3,5.89h16.18L118.33,326.23z"/>
	</g>
</g>
<g>
	<g>
		<path fill="none" stroke="#000000" stroke-miterlimit="10" d="M226.17,306.81l-7.58,0.01l-29.44,17.38v5.33l29.47,16.78l7.54-0.03
			v-1.41c0-3.1,0-6.21,0-9.32v-0.8l-14.62-8.47l14.62-7.9V306.81z"/>
	</g>
</g>
<g>
	<g>
		<path fill="none" stroke="#000000" stroke-miterlimit="10" d="M259.24,306.8l0,12.42l-7.35,0.01l0.02-12.44l-15.18,0.02v39.47
			h1.47c4.07,0,8.14,0,12.22,0h1.47l0-12.42h7.36l0,12.42l15.15,0V306.8H259.24z"/>
	</g>
</g>
<g>
	<g>
		<path fill="none" stroke="#000000" stroke-miterlimit="10" d="M285.61,306.8v39.47h1.47c4.29,0,8.57,0,12.86,0h1.47v-1.42
			c0-12.21,0-24.43,0-36.64v-1.42H285.61z"/>
	</g>
</g>
<g>
	<g>
		<polygon fill="none" stroke="#000000" stroke-miterlimit="10" points="161.89,306.81 158.25,306.8 135.39,346.27 151.58,346.27 
			160.3,332.23 167.86,346.27 185.16,346.28 		"/>
	</g>
</g>
<g>
	<g>
		<path fill="none" stroke="#000000" stroke-miterlimit="10" d="M96.36,184.98v-32.2h8.18c0.59-3.01,1.33-5.96,2.24-8.83
			l-16.24-7.37v-5.24H71.8v73.38h18.74v-5.24l16.24-7.37c-0.73-2.33-1.37-4.7-1.89-7.12H96.36z"/>
	</g>
</g>
<g>
	<g>
		<path fill="none" stroke="#000000" stroke-miterlimit="10" d="M231.04,131.34c-1.26-1.65-2.62-3.25-4.06-4.79
			c-0.41-0.45-0.85-0.89-1.3-1.34c-0.43-0.43-0.86-0.85-1.3-1.26c-1.54-1.46-3.14-2.81-4.79-4.07c-4.21-3.23-8.79-5.86-13.63-7.85
			c-1.15-0.47-2.3-0.92-3.47-1.3c-1.17-0.4-2.36-0.78-3.56-1.1c-5.2-1.44-10.63-2.17-16.18-2.17c-4.81,0-9.53,0.55-14.09,1.64
			c-0.62,0.15-1.21,0.3-1.82,0.46c-1.2,0.32-2.39,0.68-3.56,1.07c-1.18,0.39-2.34,0.83-3.48,1.29c-4.82,1.97-9.38,4.55-13.58,7.73
			c-1.76,1.32-3.45,2.76-5.07,4.3c-0.45,0.4-0.87,0.83-1.31,1.26c-0.34,0.34-0.67,0.68-1,1.03c-1.55,1.62-3.01,3.33-4.35,5.09
			c-3.18,4.16-5.79,8.71-7.79,13.54c-0.95,2.28-1.74,4.62-2.4,7.02c-0.23,0.84-0.45,1.68-0.65,2.53l-1.32,5.74h-18.57v17.41h34.61
			c-1.35-6.34-1.33-12.91,0.09-19.27c0.53-2.4,1.27-4.79,2.2-7.11c0.18-0.48,0.38-0.94,0.58-1.4c0.8-1.82,1.72-3.57,2.74-5.27
			c1.61-2.65,3.48-5.12,5.61-7.39c0.35-0.37,0.7-0.74,1.07-1.11c0.28-0.28,0.55-0.55,0.84-0.82c2.28-2.18,4.75-4.09,7.38-5.71
			c2.31-1.43,4.72-2.64,7.24-3.63h0.01c1.15-0.46,2.31-0.86,3.5-1.21c1.19-0.36,2.4-0.67,3.64-0.93c3.08-0.65,6.25-0.98,9.48-0.98
			c3.32,0,6.58,0.35,9.75,1.03c1.22,0.27,2.44,0.59,3.62,0.96c0.6,0.18,1.19,0.37,1.77,0.57c0.59,0.2,1.17,0.43,1.73,0.65h0.01
			c2.53,1.01,4.97,2.26,7.29,3.71c2.63,1.66,5.11,3.61,7.38,5.82c0.19,0.17,0.37,0.35,0.54,0.53c0.37,0.36,0.72,0.73,1.08,1.11
			c0.33,0.36,0.66,0.72,0.98,1.1h18.69C234.24,135.84,232.73,133.54,231.04,131.34z"/>
	</g>
</g>
<g>
	<g>
		<path fill="none" stroke="#000000" stroke-miterlimit="10" d="M267.88,82.93h-48.94l-8.26,18.2c-1.06-0.45-2.15-0.87-3.26-1.27
			c-1.16-0.43-2.33-0.81-3.52-1.17c-5.84-1.78-12-2.83-18.35-3.06c-0.43-0.01-0.85-0.02-1.28-0.03c-0.46-0.01-0.91-0.01-1.37-0.01
			c-0.36,0-0.72,0-1.08,0.01c-6.82,0.1-13.42,1.15-19.67,3.02c-1.19,0.36-2.61,0.82-3.77,1.24c-1.17,0.41-2.32,0.86-3.45,1.34
			c-0.04,0.02-0.07,0.03-0.11,0.05l-8.32-18.33H97.74v48.77l18.35,8.33c0,0.01,0,0.02-0.01,0.03c-0.17,0.4-0.34,0.81-0.5,1.22
			c-0.15,0.37-0.3,0.76-0.45,1.14c-0.13,0.36-0.23,0.62-0.36,0.97c0,0-0.03,0.1-0.04,0.11c-0.41,1.16-1.18,3.55-1.18,3.55
			c-0.01,0.04-0.02,0.1-0.04,0.14c-0.18,0.64-0.37,1.28-0.54,1.91c-0.33,1.21-0.63,2.44-0.88,3.68h4.35
			c0.31-1.34,0.66-2.66,1.05-3.98c0.69-2.36,1.51-4.69,2.47-6.99c1.51-3.61,3.34-7.12,5.49-10.48c1.65-2.55,3.48-5.02,5.5-7.38
			c1.16-1.36,2.38-2.68,3.66-3.97c1.36-1.36,2.78-2.65,4.22-3.87c2.36-2.01,4.83-3.82,7.38-5.45c1.6-1.01,3.21-1.95,4.86-2.82
			c0.99-0.51,1.99-1,3-1.48c0.5-0.22,1.01-0.46,1.52-0.68c0.15-0.06,0.3-0.13,0.45-0.18c0.23-0.11,0.47-0.2,0.7-0.3
			c0.64-0.27,1.28-0.52,1.91-0.77c0.52-0.19,1.03-0.37,1.55-0.55c0.52-0.19,1.05-0.36,1.57-0.53c0.52-0.17,1.04-0.33,1.57-0.49
			c0.13-0.03,0.26-0.07,0.39-0.11c0.93-0.27,1.85-0.52,2.78-0.74c0.63-0.15,1.26-0.3,1.87-0.43c0.9-0.19,1.81-0.36,2.7-0.52
			c0.16-0.03,0.32-0.05,0.47-0.07c3.67-0.61,7.36-0.92,11.07-0.93c0.03,0,0.07,0,0.12,0c3.81,0,7.63,0.32,11.39,0.96
			c1.07,0.18,2.15,0.38,3.22,0.62c0.53,0.12,1.06,0.24,1.6,0.37c1.02,0.24,2.03,0.52,3.04,0.82c0.04,0.01,0.1,0.02,0.14,0.03
			c0.66,0.2,1.31,0.4,1.97,0.62c0.48,0.16,0.96,0.32,1.44,0.49c0.12,0.04,0.24,0.08,0.36,0.14c0.13,0.04,0.24,0.09,0.37,0.13
			c0.43,0.16,0.85,0.32,1.27,0.49c0.32,0.12,0.62,0.23,0.93,0.36c0.17,0.06,0.35,0.14,0.52,0.21c0.31,0.13,0.62,0.26,0.91,0.38
			c0.67,0.3,1.34,0.6,2.01,0.91c0.84,0.39,1.67,0.82,2.5,1.24c0.49,0.27,0.99,0.53,1.48,0.8c0.98,0.54,1.94,1.12,2.89,1.71
			c0.27,0.16,0.52,0.33,0.79,0.5c0.69,0.44,1.37,0.9,2.04,1.37c1.83,1.28,3.62,2.65,5.34,4.13c1.35,1.15,2.66,2.36,3.92,3.63
			c1.29,1.29,2.51,2.61,3.66,3.97c2.02,2.36,3.86,4.83,5.5,7.38c2.17,3.39,4.02,6.94,5.53,10.6c0.48,1.14,0.91,2.3,1.33,3.46
			c0.02,0.07,0.05,0.16,0.09,0.24h-0.62h-33.02c-0.27-0.37-0.55-0.73-0.83-1.1c-0.89-1.14-1.86-2.22-2.91-3.28
			c-0.87-0.87-1.77-1.7-2.7-2.46c-0.7-0.58-1.43-1.14-2.16-1.66c-2.43-1.72-5.01-3.14-7.7-4.22c-0.09-0.03-0.16-0.06-0.25-0.1
			c-0.07-0.03-0.16-0.06-0.24-0.1c-0.41-0.16-0.83-0.31-1.23-0.46c-0.59-0.2-1.17-0.38-1.76-0.56c-0.18-0.05-0.36-0.11-0.54-0.15
			c-1.2-0.34-2.44-0.62-3.67-0.84h-0.01c-0.38-0.06-0.77-0.13-1.15-0.18c-0.6-0.09-1.2-0.16-1.81-0.21
			c-1.21-0.12-2.44-0.18-3.65-0.18c-1.21,0-2.44,0.06-3.65,0.18c-0.6,0.05-1.2,0.13-1.81,0.21c-0.3,0.04-0.59,0.09-0.87,0.14
			c-1.24,0.2-2.48,0.48-3.69,0.81c-0.27,0.07-0.53,0.15-0.81,0.22c-0.29,0.1-0.58,0.18-0.87,0.28c-0.63,0.2-1.24,0.41-1.86,0.65
			c-2.95,1.13-5.79,2.63-8.45,4.51c-0.63,0.45-1.26,0.93-1.86,1.42c-1.03,0.84-2.04,1.73-3,2.7c-1.04,1.04-2.02,2.14-2.91,3.28
			c-0.52,0.65-1.01,1.31-1.47,1.98c-1.38,2-2.54,4.1-3.5,6.27c-0.21,0.49-0.43,0.98-0.61,1.48c-0.93,2.34-1.6,4.74-2.02,7.2
			c-0.78,4.34-0.79,8.8-0.04,13.15c0.41,2.45,1.08,4.86,1.99,7.21c0.4,1.06,0.87,2.13,1.38,3.16h-36.23
			c0.32,1.36,0.69,2.71,1.1,4.04c0.36,1.19,0.74,2.36,1.17,3.52c0.31,0.87,0.65,1.74,0.99,2.6c0.1,0.23,0.19,0.46,0.29,0.69
			l-18.28,8.29v48.89h48.73l8.27-18.24c0.06,0.03,0.14,0.05,0.2,0.08c1.13,0.48,2.28,0.93,3.45,1.34c1.16,0.43,2.33,0.81,3.52,1.17
			c6.65,2.02,13.7,3.11,21,3.11c2.73,0,5.44-0.15,8.08-0.45c4.44-0.5,8.75-1.39,12.91-2.66c1.19-0.36,2.36-0.74,3.52-1.17
			c0.56-0.2,1.13-0.41,1.69-0.63c0.55-0.21,1.11-0.44,1.65-0.67l8.23,18.12h48.89V204.2l-18.15-8.23c0.48-1.13,0.91-2.27,1.33-3.43
			c0.43-1.16,0.81-2.33,1.17-3.52c0.57-1.88,1.07-3.81,1.48-5.75h-4.35c-0.31,1.34-0.66,2.66-1.05,3.98
			c-0.69,2.36-1.51,4.69-2.47,6.99c-1.51,3.62-3.34,7.12-5.49,10.48c-1.1,1.69-2.28,3.35-3.53,4.97c-0.64,0.81-1.29,1.62-1.97,2.41
			c-1.16,1.36-2.38,2.68-3.66,3.97c-1.36,1.36-2.78,2.65-4.22,3.87c-2.36,2.01-4.83,3.82-7.38,5.45c-1.6,1.01-3.21,1.95-4.86,2.82
			c-0.99,0.51-1.99,1-3,1.48c-0.5,0.22-1.01,0.46-1.52,0.68c-0.38,0.16-0.77,0.32-1.15,0.48c-1.66,0.69-3.34,1.3-5.04,1.85
			c-0.52,0.17-1.04,0.33-1.57,0.49c-0.13,0.03-0.26,0.07-0.39,0.11c-0.93,0.27-1.85,0.52-2.78,0.74c-0.63,0.15-1.26,0.3-1.87,0.43
			c-0.9,0.19-1.81,0.36-2.7,0.52c-0.16,0.03-0.32,0.05-0.47,0.07c-1.02,0.17-2.03,0.31-3.05,0.43c-2.66,0.32-5.34,0.49-8.02,0.5
			c-0.03,0-0.07,0-0.11,0c0,0,0,0-0.01,0c-3.81,0-7.63-0.32-11.39-0.96c-1.07-0.18-2.15-0.38-3.22-0.62
			c-0.53-0.12-1.06-0.24-1.6-0.37c-1.02-0.24-2.03-0.52-3.04-0.82c-0.04-0.01-0.09-0.02-0.14-0.03c-0.66-0.2-1.31-0.4-1.97-0.62
			c-1.1-0.37-2.19-0.76-3.28-1.18c-0.36-0.14-0.72-0.28-1.09-0.43c-0.17-0.07-0.35-0.14-0.52-0.21c-0.31-0.13-0.62-0.26-0.91-0.38
			c-0.67-0.3-1.34-0.6-2.01-0.91c-0.84-0.39-1.67-0.82-2.5-1.24c-0.49-0.27-0.99-0.53-1.48-0.8c-0.98-0.54-1.94-1.12-2.89-1.71
			c-0.27-0.16-0.52-0.33-0.79-0.5c-0.69-0.44-1.37-0.9-2.04-1.37c-1.83-1.28-3.62-2.65-5.34-4.13c-1.35-1.15-2.66-2.36-3.93-3.63
			c-1.29-1.29-2.51-2.61-3.66-3.97c-2.02-2.36-3.86-4.83-5.5-7.38c-2.17-3.39-4.02-6.94-5.53-10.6c-0.51-1.21-0.98-2.46-1.42-3.7
			h33.64c0.27,0.37,0.55,0.73,0.83,1.1c0.89,1.14,1.86,2.22,2.92,3.28c0.87,0.87,1.77,1.7,2.7,2.46c0.7,0.59,1.43,1.14,2.16,1.66
			c2.43,1.72,5.01,3.14,7.7,4.22c0.16,0.06,0.32,0.13,0.49,0.19c0.41,0.16,0.83,0.31,1.23,0.46c0.59,0.2,1.17,0.38,1.76,0.56
			c1.39,0.4,2.8,0.73,4.22,0.99c0.38,0.06,0.77,0.13,1.15,0.18c0.6,0.09,1.2,0.16,1.81,0.21c1.21,0.12,2.44,0.18,3.65,0.18
			c1.21,0,2.44-0.06,3.65-0.18c0.6-0.05,1.2-0.13,1.81-0.21c0.3-0.04,0.59-0.09,0.87-0.14c1.52-0.26,3.02-0.6,4.5-1.03
			c0.29-0.1,0.58-0.18,0.87-0.28c0.63-0.2,1.24-0.41,1.86-0.65c2.47-0.95,4.84-2.16,7.11-3.63c0.46-0.29,0.9-0.57,1.34-0.88
			c0.63-0.45,1.26-0.93,1.86-1.42c1.03-0.84,2.04-1.73,3-2.7c1.04-1.04,2.02-2.14,2.92-3.28c0.52-0.65,1.01-1.31,1.47-1.98
			c0.89-1.29,1.67-2.62,2.38-3.97c0.39-0.76,0.78-1.52,1.12-2.3c0.21-0.49,0.43-0.98,0.61-1.48c0.93-2.34,1.6-4.74,2.02-7.2
			c0.78-4.34,0.79-8.8,0.04-13.15c-0.21-1.23-0.49-2.47-0.82-3.68c-0.33-1.19-0.71-2.36-1.17-3.53c-0.4-1.06-0.87-2.13-1.38-3.16
			h36.23c-0.32-1.36-0.69-2.71-1.1-4.04c-0.36-1.19-0.74-2.36-1.17-3.52c-0.41-1.17-0.86-2.32-1.34-3.45
			c-0.02-0.05-0.05-0.12-0.07-0.17l18.23-8.27V82.93z"/>
	</g>
</g>
<g>
	<g>
		<path fill="none" stroke="#000000" stroke-miterlimit="10" d="M146.21,57.45v18.21h5.24l7.37,16.24c7.6-2.4,15.69-3.71,24.07-3.71
			c8.38,0,16.48,1.31,24.07,3.71l7.37-16.24h5.24V57.45H146.21z"/>
	</g>
</g>
<g>
	<g>
		<path fill="none" stroke="#000000" stroke-miterlimit="10" d="M227.44,158.46c0.45,2.07,0.72,4.17,0.87,6.28
			c0.3,4.34,0,8.72-0.96,13c-0.03,0.16-0.07,0.32-0.12,0.48c-0.52,2.24-1.21,4.47-2.08,6.63c-0.18,0.48-0.38,0.94-0.59,1.4
			c-0.8,1.82-1.72,3.57-2.74,5.27c-1.61,2.65-3.48,5.12-5.61,7.39c-0.35,0.37-0.7,0.74-1.07,1.11c-0.28,0.28-0.55,0.55-0.84,0.82
			c-2.28,2.18-4.75,4.09-7.38,5.71c-2.31,1.43-4.72,2.64-7.24,3.63c-0.76,0.3-1.52,0.56-2.3,0.82c-1.59,0.52-3.2,0.97-4.85,1.32
			c-3.09,0.65-6.25,0.98-9.48,0.98c-3.32,0-6.58-0.35-9.75-1.03c-2.44-0.53-4.82-1.27-7.12-2.18v-0.01c-2.54-1-4.98-2.24-7.3-3.7
			c-2.63-1.66-5.11-3.61-7.38-5.82c-0.19-0.17-0.37-0.35-0.54-0.53c-0.37-0.36-0.72-0.73-1.09-1.11c-0.33-0.36-0.66-0.72-0.98-1.1
			h-18.69c1.36,2.4,2.87,4.7,4.56,6.9c1.26,1.65,2.62,3.25,4.06,4.79c0.41,0.45,0.85,0.89,1.3,1.34c0.43,0.43,0.86,0.85,1.3,1.26
			c1.54,1.46,3.14,2.81,4.79,4.07c4.21,3.22,8.79,5.86,13.63,7.85h0.01c2.28,0.95,4.63,1.74,7.02,2.39
			c5.2,1.44,10.63,2.17,16.18,2.17c3.06,0,6.1-0.23,9.07-0.68c2.31-0.34,4.6-0.81,6.84-1.41c2.4-0.64,4.75-1.44,7.04-2.36
			c4.82-1.97,9.38-4.55,13.58-7.73c1.76-1.32,3.45-2.75,5.07-4.3c0.45-0.4,0.87-0.83,1.31-1.26c0.34-0.34,0.67-0.68,1-1.03
			c1.55-1.62,3.01-3.33,4.35-5.09c1.95-2.54,3.65-5.24,5.15-8.05c0.97-1.79,1.86-3.62,2.64-5.49c0.95-2.28,1.74-4.62,2.4-7.02
			c0.23-0.84,0.45-1.68,0.65-2.53l1.32-5.74h18.57v-17.41H227.44z"/>
	</g>
</g>
<g>
	<g>
		<path fill="none" stroke="#000000" stroke-miterlimit="10" d="M275.27,131.34v5.24l-16.24,7.37c0.74,2.33,1.37,4.7,1.89,7.12h8.53
			v32.2h-8.17c-0.6,3.01-1.34,5.96-2.26,8.83l16.24,7.37v5.24h18.74v-73.38H275.27z"/>
	</g>
</g>
<g>
	<g>
		<path fill="none" stroke="#000000" stroke-miterlimit="10" d="M214.35,260.39l-7.37-16.24c-5.02,1.6-10.28,2.69-15.68,3.26
			c-2.76,0.3-5.55,0.46-8.39,0.46c-8.38,0-16.48-1.31-24.07-3.71l-7.37,16.24h-5.24v18.21h73.38v-18.21H214.35z"/>
	</g>
</g>
<g>
	<g>
		<polygon fill="none" stroke="#000000" stroke-miterlimit="10" points="275.27,123.96 275.27,75.66 226.97,75.66 226.97,50.06 
			138.83,50.06 138.83,75.66 90.54,75.66 90.54,123.96 64.4,123.96 64.4,212.1 90.54,212.1 90.54,260.39 138.83,260.39 138.83,286 
			226.97,286 226.97,260.39 275.27,260.39 275.27,212.1 301.4,212.1 301.4,123.96 		"/>
	</g>
</g>
<g>
	<g>
		<path fill="none" stroke="#000000" stroke-miterlimit="10" d="M205.23,164.3c-0.2-1.24-0.52-2.46-0.94-3.63v-0.01
			c-0.7-2.04-1.71-3.95-2.95-5.68l-3.87,3.87c0.06,0.17,0.13,0.34,0.18,0.51c0.4,1.19,0.68,2.41,0.83,3.68
			c0.09,0.72,0.13,1.46,0.13,2.2c0,0.62-0.03,1.22-0.08,1.84c-0.13,1.28-0.39,2.52-0.77,3.7c-0.9,2.87-2.49,5.45-4.56,7.52
			c-2.07,2.08-4.65,3.68-7.52,4.59c-1.19,0.37-2.43,0.64-3.71,0.77c-0.62,0.06-1.23,0.1-1.86,0.1c-0.73,0-1.47-0.04-2.19-0.14
			c-1.26-0.14-2.49-0.42-3.68-0.82c-0.17-0.06-0.35-0.12-0.52-0.18l-3.68,3.67c1.71,1.22,3.6,2.22,5.61,2.93
			c1.17,0.41,2.38,0.73,3.63,0.95c1.24,0.21,2.51,0.33,3.81,0.33c1.19,0,2.35-0.1,3.49-0.27c1.26-0.2,2.48-0.5,3.66-0.89
			c0,0,0,0,0-0.01c6.57-2.21,11.81-7.39,14.08-13.93c0.4-1.17,0.72-2.39,0.92-3.64c0.2-1.21,0.31-2.46,0.31-3.72
			C205.54,166.76,205.43,165.52,205.23,164.3z"/>
	</g>
</g>
<g>
	<g>
		<path fill="none" stroke="#000000" stroke-miterlimit="10" d="M190.22,146.73c-1.18-0.39-2.4-0.7-3.66-0.89
			c-1.13-0.18-2.3-0.28-3.49-0.28c-1.3,0-2.57,0.12-3.81,0.32c-1.24,0.22-2.46,0.54-3.63,0.95c-1.48,0.52-2.88,1.19-4.2,1.99
			c-0.62,0.38-1.21,0.79-1.79,1.21c-0.59,0.44-1.14,0.89-1.67,1.37c-0.27,0.24-0.52,0.5-0.78,0.74c-1.53,1.53-2.84,3.28-3.87,5.18
			c-0.61,1.11-1.12,2.28-1.52,3.48c-0.4,1.17-0.71,2.39-0.92,3.65c-0.19,1.16-0.28,2.36-0.28,3.57c0,1.21,0.09,2.4,0.28,3.57
			c0.1,0.58,0.21,1.16,0.35,1.72c0.07,0.28,0.14,0.56,0.22,0.84c0.11,0.36,0.21,0.72,0.34,1.09c0.71,2.1,1.73,4.05,3,5.82
			l31.31-31.31C194.33,148.48,192.35,147.44,190.22,146.73z"/>
	</g>
</g>
<g>
	<g>
		<path fill="none" stroke="#000000" stroke-miterlimit="10" d="M212.77,164.94c-0.13-1.29-0.34-2.54-0.64-3.78
			c-0.29-1.21-0.65-2.4-1.08-3.55c0.01-0.01,0.01-0.01,0-0.01c-1.01-2.72-2.41-5.24-4.13-7.52c-1.56-2.07-3.39-3.94-5.43-5.54
			c-2.46-1.93-5.22-3.48-8.21-4.56c-1.16-0.43-2.35-0.79-3.57-1.06c-1.23-0.28-2.5-0.48-3.79-0.61c-0.94-0.09-1.88-0.13-2.85-0.13
			c-1.06,0-2.13,0.05-3.17,0.16c-1.28,0.14-2.54,0.36-3.77,0.65c-1.22,0.29-2.41,0.66-3.56,1.1c-2.87,1.07-5.54,2.6-7.91,4.46
			c-2.19,1.73-4.14,3.76-5.78,6.01c-1.59,2.19-2.88,4.61-3.83,7.19c-0.86,2.33-1.44,4.79-1.69,7.35c-0.1,0.96-0.14,1.95-0.14,2.94
			c0,0.99,0.04,1.98,0.14,2.94c0.26,2.56,0.83,5.02,1.69,7.35c0.95,2.58,2.24,5,3.83,7.19c1.64,2.26,3.58,4.28,5.78,6.01
			c2.37,1.86,5.04,3.38,7.91,4.46c2.32,0.87,4.78,1.47,7.33,1.74c1.04,0.11,2.11,0.16,3.17,0.16c0.97,0,1.91-0.04,2.85-0.13
			c2.55-0.24,5.03-0.81,7.36-1.67c2.99-1.09,5.75-2.64,8.21-4.56c2.03-1.61,3.86-3.47,5.43-5.54c1.71-2.28,3.12-4.8,4.13-7.52v-0.01
			c0.87-2.32,1.46-4.78,1.72-7.33c0.11-1.01,0.16-2.04,0.16-3.08C212.93,166.98,212.88,165.95,212.77,164.94z"/>
	</g>
</g>
</svg>
