<?xml version='1.0' encoding='ascii'?>
<svg xmlns="http://www.w3.org/2000/svg" version="1.1" width="1920" height="1080">
    <g id="ViewLayer_LineSet" xmlns:inkscape="http://www.inkscape.org/namespaces/inkscape" inkscape:groupmode="lineset" inkscape:label="ViewLayer_LineSet">
        <g xmlns:inkscape="http://www.inkscape.org/namespaces/inkscape" inkscape:groupmode="layer" id="strokes" inkscape:label="strokes">
            <path fill="none" stroke-width="3.0" stroke-linecap="butt" stroke-opacity="1.0" stroke="rgb(0, 0, 0)" stroke-linejoin="miter" d=" M 828.993, 55.839 828.952, 65.839 828.912, 75.839 828.871, 85.839 828.831, 95.839 828.790, 105.839 828.750, 115.839 828.709, 125.839 828.669, 135.839 828.628, 145.838 828.588, 155.838 828.583, 157.004 818.583, 157.016 808.583, 157.029 798.583, 157.041 788.583, 157.054 778.583, 157.066 768.583, 157.079 758.583, 157.091 748.583, 157.104 738.583, 157.116 728.583, 157.129 718.583, 157.141 708.583, 157.153 698.583, 157.166 688.583, 157.178 678.583, 157.191 668.583, 157.203 658.583, 157.216 648.583, 157.228 638.255, 157.241 638.255, 167.241 638.255, 177.241 638.255, 187.241 638.255, 197.241 638.255, 207.241 638.255, 217.241 638.255, 227.241 638.255, 237.241 638.255, 247.241 638.255, 257.241 638.255, 267.241 638.255, 277.241 638.255, 287.241 638.255, 297.241 638.255, 307.241 638.255, 317.241 638.255, 327.241 638.255, 337.241 638.255, 347.693 628.255, 347.670 618.255, 347.647 608.255, 347.624 598.255, 347.601 588.255, 347.578 578.255, 347.555 568.255, 347.532 558.255, 347.509 548.255, 347.486 538.255, 347.464 534.913, 347.456 534.899, 357.456 534.885, 367.456 534.871, 377.456 534.856, 387.456 534.842, 397.456 534.828, 407.456 534.814, 417.456 534.800, 427.456 534.786, 437.456 534.772, 447.456 534.758, 457.456 534.743, 467.456 534.729, 477.456 534.715, 487.456 534.701, 497.456 534.687, 507.456 534.673, 517.456 534.659, 527.456 534.645, 537.456 534.630, 547.456 534.616, 557.456 534.602, 567.456 534.588, 577.456 534.574, 587.456 534.560, 597.456 534.546, 607.456 534.532, 617.456 534.518, 627.456 534.503, 637.456 534.489, 647.456 534.475, 657.456 534.461, 667.456 534.447, 677.455 534.433, 687.455 534.422, 695.430 544.422, 695.430 554.422, 695.430 564.422, 695.430 574.422, 695.430 584.422, 695.430 594.422, 695.430 604.422, 695.430 614.422, 695.430 624.422, 695.430 634.422, 695.430 638.126, 695.430 638.126, 705.430 638.126, 715.430 638.126, 725.430 638.126, 735.430 638.126, 745.430 638.126, 755.430 638.126, 765.430 638.126, 775.430 638.126, 785.430 638.126, 795.430 638.126, 805.430 638.126, 815.430 638.126, 825.430 638.126, 835.430 638.126, 845.430 638.126, 855.430 638.126, 865.430 638.126, 875.430 638.126, 886.127 648.126, 886.128 658.126, 886.128 668.126, 886.128 678.126, 886.128 688.126, 886.129 698.126, 886.129 708.126, 886.129 718.126, 886.129 728.126, 886.130 738.126, 886.130 748.126, 886.130 758.126, 886.130 768.126, 886.130 778.126, 886.131 788.126, 886.131 798.126, 886.131 808.126, 886.131 818.126, 886.132 828.352, 886.132 828.350, 896.132 828.348, 906.132 828.346, 916.132 828.344, 926.132 828.342, 936.132 828.340, 946.132 828.338, 956.132 828.336, 966.132 828.334, 976.132 828.332, 986.132 828.332, 987.374 838.332, 987.370 848.332, 987.366 858.332, 987.362 868.332, 987.358 878.332, 987.354 888.332, 987.350 898.332, 987.346 908.332, 987.342 918.332, 987.338 928.332, 987.334 938.332, 987.330 948.332, 987.325 958.332, 987.321 968.332, 987.317 978.332, 987.313 988.332, 987.309 998.332, 987.305 1008.332, 987.301 1018.332, 987.297 1028.332, 987.293 1038.332, 987.289 1048.332, 987.285 1058.332, 987.281 1068.332, 987.277 1078.332, 987.273 1088.332, 987.269 1098.332, 987.265 1108.332, 987.261 1118.332, 987.257 1128.332, 987.252 1138.332, 987.248 1148.332, 987.244 1158.332, 987.240 1168.332, 987.236 1176.698, 987.233 1176.698, 977.233 1176.698, 967.233 1176.698, 957.233 1176.698, 947.233 1176.698, 937.233 1176.698, 927.233 1176.698, 917.233 1176.698, 907.233 1176.698, 897.233 1176.698, 886.312 1186.698, 886.312 1196.698, 886.312 1206.698, 886.312 1216.698, 886.312 1226.698, 886.312 1236.698, 886.312 1246.698, 886.312 1256.698, 886.312 1266.698, 886.312 1276.698, 886.312 1286.698, 886.312 1296.698, 886.312 1306.698, 886.312 1316.698, 886.312 1326.698, 886.312 1336.698, 886.312 1346.698, 886.312 1356.698, 886.312 1367.310, 886.312 1367.310, 876.312 1367.310, 866.312 1367.310, 856.312 1367.310, 846.312 1367.310, 836.312 1367.310, 826.312 1367.310, 816.312 1367.310, 806.312 1367.310, 796.312 1367.310, 786.312 1367.310, 776.312 1367.310, 766.312 1367.310, 756.312 1367.310, 746.312 1367.310, 736.312 1367.310, 726.312 1367.310, 716.312 1367.310, 706.312 1367.310, 695.553 1377.310, 695.553 1387.310, 695.553 1397.310, 695.553 1407.310, 695.553 1417.310, 695.553 1427.310, 695.553 1437.310, 695.553 1447.310, 695.553 1457.310, 695.553 1467.310, 695.553 1470.456, 695.553 1470.456, 685.553 1470.456, 675.553 1470.456, 665.553 1470.456, 655.553 1470.456, 645.553 1470.456, 635.553 1470.456, 625.553 1470.456, 615.553 1470.456, 605.553 1470.456, 595.553 1470.456, 585.553 1470.456, 575.553 1470.456, 565.553 1470.456, 555.553 1470.456, 545.553 1470.456, 535.553 1470.456, 525.553 1470.456, 515.553 1470.456, 505.553 1470.456, 495.553 1470.456, 485.553 1470.456, 475.553 1470.456, 465.553 1470.456, 455.553 1470.456, 445.553 1470.456, 435.553 1470.456, 425.553 1470.456, 415.553 1470.456, 405.553 1470.456, 395.553 1470.456, 385.553 1470.456, 375.553 1470.456, 365.553 1470.456, 355.553 1470.456, 348.078 1460.456, 348.078 1450.456, 348.078 1440.456, 348.078 1430.456, 348.078 1420.456, 348.078 1410.456, 348.078 1400.456, 348.078 1390.456, 348.078 1380.456, 348.078 1370.456, 348.078 1367.173, 348.078 1367.173, 338.078 1367.173, 328.078 1367.173, 318.078 1367.173, 308.078 1367.173, 298.078 1367.173, 288.078 1367.173, 278.078 1367.173, 268.078 1367.173, 258.078 1367.173, 248.078 1367.173, 238.078 1367.173, 228.078 1367.173, 218.078 1367.173, 208.078 1367.173, 198.078 1367.173, 188.078 1367.173, 178.078 1367.173, 168.078 1367.173, 157.004 1357.173, 157.004 1347.173, 157.004 1337.173, 157.004 1327.173, 157.004 1317.173, 157.004 1307.173, 157.004 1297.173, 157.004 1287.173, 157.004 1277.173, 157.004 1267.173, 157.004 1257.173, 157.004 1247.173, 157.004 1237.173, 157.004 1227.173, 157.004 1217.173, 157.004 1207.173, 157.004 1197.173, 157.004 1187.173, 157.004 1176.721, 157.004 1176.680, 147.004 1176.640, 137.004 1176.599, 127.004 1176.558, 117.004 1176.518, 107.004 1176.477, 97.004 1176.436, 87.005 1176.396, 77.005 1176.355, 67.005 1176.311, 56.249 1166.311, 56.237 1156.311, 56.225 1146.311, 56.213 1136.311, 56.202 1126.311, 56.190 1116.311, 56.178 1106.311, 56.166 1096.311, 56.154 1086.311, 56.143 1076.311, 56.131 1066.311, 56.119 1056.311, 56.107 1046.311, 56.095 1036.311, 56.084 1026.311, 56.072 1016.311, 56.060 1006.311, 56.048 996.311, 56.036 986.311, 56.025 976.311, 56.013 966.311, 56.001 956.311, 55.989 946.311, 55.978 936.311, 55.966 926.311, 55.954 916.311, 55.942 906.311, 55.930 896.311, 55.919 886.311, 55.907 876.311, 55.895 866.311, 55.883 856.311, 55.871 846.311, 55.860 836.311, 55.848 828.993, 55.839 " />
            <path fill="none" stroke-width="3.0" stroke-linecap="butt" stroke-opacity="1.0" stroke="rgb(0, 0, 0)" stroke-linejoin="miter" d=" M 1032.763, 85.396 1042.763, 85.395 1052.763, 85.394 1062.763, 85.393 1064.642, 85.393 1074.642, 85.393 1084.642, 85.392 1093.616, 85.392 1103.616, 85.392 1113.616, 85.392 1118.143, 85.392 1128.143, 85.394 1136.678, 85.395 1146.678, 85.399 1147.677, 85.400 1147.677, 91.740 1147.679, 98.667 1147.682, 105.986 1147.686, 113.500 1147.690, 121.015 1147.693, 128.333 1147.695, 135.261 1147.695, 141.601 1147.692, 147.158 1147.686, 151.736 1147.677, 155.141 1147.663, 157.175 1145.966, 157.175 1144.313, 157.175 1142.689, 157.175 1141.080, 157.175 1139.471, 157.175 1137.847, 157.175 1136.194, 157.175 1134.497, 157.175 1132.742, 157.175 1130.914, 157.175 1128.998, 157.175 1126.980, 157.175 1124.585, 162.405 1122.266, 167.466 1119.997, 172.415 1117.754, 177.307 1115.510, 182.200 1113.242, 187.148 1110.922, 192.210 1108.528, 197.439 1106.032, 202.894 1103.411, 208.630 1100.639, 214.704 1097.690, 221.171 1088.044, 218.536 1082.732, 217.085 1072.985, 214.852 1067.562, 213.609 1057.727, 211.802 1052.196, 210.786 1042.289, 209.427 1036.650, 208.654 1026.689, 207.767 1020.939, 207.255 1010.946, 206.860 1005.079, 206.629 995.079, 206.746 989.086, 206.816 979.107, 207.461 972.975, 207.857 963.046, 209.042 956.764, 209.792 946.915, 211.526 940.466, 212.662 930.731, 214.949 924.099, 216.508 914.510, 219.346 907.677, 221.368 905.195, 215.896 902.609, 210.195 899.955, 204.342 897.267, 198.412 894.579, 192.483 891.925, 186.630 889.340, 180.929 886.857, 175.456 884.512, 170.288 882.338, 165.501 880.370, 161.170 878.642, 157.372 876.909, 157.374 875.196, 157.378 873.496, 157.384 871.803, 157.392 870.109, 157.399 868.409, 157.405 866.696, 157.409 864.964, 157.411 863.205, 157.409 861.413, 157.402 859.582, 157.390 857.705, 157.372 857.734, 151.262 857.771, 144.966 857.815, 138.546 857.861, 132.064 857.907, 125.582 857.950, 119.162 857.988, 112.866 858.017, 106.755 858.034, 100.893 858.038, 95.340 858.023, 90.159 857.989, 85.412 867.989, 85.412 877.989, 85.412 883.826, 85.412 893.826, 85.411 903.826, 85.410 907.065, 85.409 917.065, 85.408 927.065, 85.407 935.121, 85.406 945.121, 85.405 955.121, 85.404 965.121, 85.403 966.448, 85.402 976.448, 85.401 986.448, 85.400 996.448, 85.399 999.503, 85.399 1009.503, 85.398 1019.503, 85.397 1029.503, 85.396 1032.763, 85.396 " />
            <path fill="none" stroke-width="3.0" stroke-linecap="butt" stroke-opacity="1.0" stroke="rgb(0, 0, 0)" stroke-linejoin="miter" d=" M 1182.363, 454.748 1172.363, 454.749 1169.469, 454.750 1159.469, 454.751 1157.519, 454.752 1147.519, 454.753 1146.846, 454.753 1137.754, 454.754 1139.960, 458.776 1143.078, 466.137 1146.262, 475.616 1146.540, 476.442 1148.985, 486.138 1149.780, 489.294 1151.394, 499.163 1152.233, 504.297 1152.888, 514.275 1153.332, 521.053 1152.879, 531.043 1152.511, 539.167 1150.802, 549.020 1149.203, 558.243 1146.122, 567.756 1143.041, 577.270 1142.842, 577.883 1138.343, 586.813 1133.844, 595.744 1132.863, 597.691 1127.001, 605.793 1121.140, 613.895 1118.698, 617.270 1111.634, 624.349 1104.570, 631.427 1099.781, 636.225 1091.568, 641.929 1083.354, 647.633 1079.259, 650.477 1070.316, 654.951 1061.372, 659.425 1058.447, 660.889 1048.942, 663.997 1039.437, 667.105 1037.561, 667.718 1027.700, 669.383 1017.840, 671.049 1016.818, 671.221 1006.820, 671.434 996.822, 671.648 996.434, 671.656 986.505, 670.464 976.625, 669.279 966.946, 666.769 957.609, 664.347 948.328, 660.622 939.600, 657.118 930.846, 652.284 922.815, 647.849 914.701, 642.004 907.471, 636.796 900.108, 630.030 893.783, 624.218 887.293, 616.610 881.969, 610.370 871.969, 610.370 861.969, 610.370 851.969, 610.370 841.969, 610.370 831.969, 610.370 821.969, 610.370 811.969, 610.370 801.969, 610.370 791.969, 610.370 781.969, 610.370 771.969, 610.370 761.969, 610.370 751.969, 610.370 749.950, 610.370 753.729, 619.628 757.507, 628.887 761.286, 638.145 761.893, 639.632 766.732, 648.383 771.571, 657.134 776.410, 665.885 776.695, 666.401 782.519, 674.531 788.342, 682.660 794.062, 690.645 800.775, 698.057 807.488, 705.469 813.699, 712.327 821.194, 718.947 828.690, 725.566 835.311, 731.414 843.478, 737.185 851.645, 742.955 858.603, 747.872 867.333, 752.751 876.062, 757.630 883.281, 761.665 892.466, 765.619 901.651, 769.574 909.049, 772.759 918.588, 775.762 928.127, 778.764 935.613, 781.121 945.406, 783.145 955.199, 785.169 962.678, 786.715 972.626, 787.733 982.574, 788.751 989.949, 789.506 999.949, 789.490 1009.949, 789.474 1017.131, 789.462 1027.063, 788.300 1036.995, 787.138 1046.927, 785.976 1055.955, 784.919 1065.645, 782.446 1075.334, 779.973 1085.023, 777.500 1091.078, 775.954 1100.349, 772.205 1109.619, 768.455 1118.889, 764.706 1122.619, 763.197 1131.318, 758.266 1140.017, 753.334 1148.717, 748.402 1150.696, 747.280 1158.712, 741.302 1166.728, 735.324 1174.744, 729.345 1175.429, 728.834 1182.694, 721.963 1189.960, 715.092 1196.938, 708.491 1203.422, 700.878 1209.906, 693.265 1215.343, 686.882 1221.039, 678.663 1226.736, 670.444 1230.761, 664.637 1235.675, 655.928 1240.589, 647.218 1243.314, 642.389 1247.444, 633.282 1251.575, 624.175 1253.119, 620.769 1256.444, 611.338 1259.769, 601.907 1260.297, 600.408 1262.749, 590.713 1264.967, 581.938 1274.967, 581.938 1282.023, 581.938 1281.137, 586.514 1280.130, 590.994 1279.017, 595.383 1277.812, 599.689 1276.530, 603.918 1275.187, 608.077 1273.798, 612.174 1272.377, 616.214 1270.939, 620.206 1269.500, 624.155 1268.075, 628.068 1266.679, 631.953 1275.779, 636.100 1284.879, 640.246 1293.979, 644.393 1303.078, 648.540 1312.178, 652.686 1321.278, 656.833 1330.378, 660.979 1338.173, 664.532 1338.156, 674.532 1338.140, 684.532 1338.123, 694.532 1338.106, 704.532 1338.089, 714.532 1338.072, 724.532 1338.055, 734.532 1338.038, 744.532 1338.021, 754.532 1338.004, 764.532 1337.987, 774.532 1337.970, 784.532 1337.953, 794.532 1337.936, 804.532 1337.919, 814.532 1337.902, 824.532 1337.885, 834.531 1337.868, 844.531 1337.851, 854.531 1337.847, 857.141 1327.847, 857.125 1317.847, 857.108 1307.847, 857.091 1297.847, 857.074 1287.847, 857.057 1277.847, 857.040 1267.847, 857.023 1257.847, 857.006 1247.847, 856.989 1237.847, 856.972 1227.847, 856.955 1217.847, 856.938 1207.847, 856.921 1197.847, 856.905 1187.847, 856.888 1177.847, 856.871 1167.847, 856.854 1157.847, 856.837 1147.847, 856.820 1144.911, 856.815 1140.776, 847.710 1136.641, 838.605 1132.506, 829.500 1128.371, 820.395 1124.236, 811.289 1120.101, 802.184 1115.967, 793.079 1112.591, 785.647 1103.199, 789.081 1093.807, 792.514 1088.418, 794.484 1078.767, 797.102 1069.116, 799.721 1064.893, 800.867 1055.058, 802.673 1045.222, 804.480 1042.135, 805.047 1032.187, 806.060 1022.238, 807.074 1020.264, 807.275 1010.267, 807.528 1000.270, 807.781 999.400, 807.803 989.410, 807.337 979.661, 806.882 969.726, 805.744 961.169, 804.763 951.325, 803.001 944.042, 801.698 934.319, 799.360 928.400, 797.937 918.820, 795.067 914.362, 793.732 904.945, 790.368 902.049, 789.334 892.811, 785.505 891.580, 784.994 888.785, 791.030 886.012, 797.055 883.258, 803.071 880.520, 809.078 877.795, 815.079 875.079, 821.076 872.369, 827.069 869.663, 833.060 866.956, 839.052 864.246, 845.045 861.531, 851.042 858.805, 857.043 848.805, 857.037 838.805, 857.032 828.805, 857.026 818.805, 857.021 808.805, 857.016 798.805, 857.010 788.805, 857.005 778.805, 856.999 768.805, 856.994 758.805, 856.988 748.805, 856.983 738.805, 856.977 728.805, 856.972 718.805, 856.966 708.805, 856.961 698.805, 856.956 688.805, 856.950 678.805, 856.945 668.805, 856.939 666.547, 856.938 666.542, 846.938 666.538, 836.938 666.533, 826.938 666.528, 816.938 666.523, 806.938 666.519, 796.938 666.514, 786.938 666.509, 776.938 666.505, 766.938 666.500, 756.938 666.495, 746.938 666.490, 736.938 666.486, 726.938 666.481, 716.938 666.476, 706.938 666.471, 696.938 666.467, 686.938 666.462, 676.938 666.457, 666.938 666.456, 664.016 675.565, 659.889 684.674, 655.762 693.783, 651.636 702.891, 647.509 712.000, 643.383 721.109, 639.256 730.218, 635.129 738.614, 631.326 737.403, 627.693 736.111, 623.968 734.766, 620.183 733.394, 616.367 732.022, 612.551 730.676, 608.765 729.385, 605.041 728.174, 601.407 727.071, 597.896 726.102, 594.537 725.294, 591.361 724.675, 588.398 734.675, 588.397 736.680, 588.397 746.680, 588.404 748.781, 588.405 758.781, 588.417 760.946, 588.419 770.946, 588.433 773.143, 588.436 783.143, 588.450 785.340, 588.454 795.340, 588.465 797.505, 588.468 807.505, 588.475 809.606, 588.476 819.606, 588.475 821.611, 588.475 831.611, 588.464 833.489, 588.462 843.489, 588.439 845.207, 588.434 855.207, 588.395 856.733, 588.389 866.733, 588.329 868.036, 588.322 863.821, 579.254 862.162, 575.685 858.869, 566.243 857.469, 562.226 855.140, 552.501 854.079, 548.068 852.758, 538.156 852.115, 533.335 851.840, 523.339 851.698, 518.151 852.503, 508.184 852.951, 502.642 854.853, 492.824 855.995, 486.930 858.990, 477.389 860.952, 471.140 865.011, 462.001 867.944, 455.396 873.010, 446.774 877.094, 439.823 883.084, 431.815 888.523, 424.544 895.336, 417.224 902.149, 409.904 902.353, 409.685 910.307, 403.624 918.156, 397.643 926.827, 392.660 935.347, 387.764 944.582, 383.927 953.648, 380.161 963.296, 377.532 972.783, 374.947 982.690, 373.583 992.477, 372.236 1002.477, 372.189 1012.451, 372.142 1022.365, 373.450 1032.430, 374.777 1042.064, 377.455 1051.699, 380.133 1052.137, 380.255 1061.289, 384.284 1070.441, 388.313 1071.295, 388.689 1079.765, 394.004 1088.236, 399.320 1089.628, 400.193 1097.238, 406.680 1104.849, 413.167 1106.859, 414.880 1113.472, 422.381 1120.084, 429.883 1122.712, 432.863 1132.712, 432.866 1134.059, 432.866 1144.059, 432.873 1145.855, 432.875 1155.855, 432.884 1157.951, 432.886 1167.950, 432.897 1170.196, 432.900 1180.196, 432.911 1182.441, 432.913 1192.441, 432.923 1194.537, 432.925 1204.537, 432.932 1206.333, 432.934 1216.333, 432.936 1217.680, 432.937 1227.680, 432.933 1228.428, 432.933 1238.427, 432.921 1247.528, 432.898 1255.580, 432.863 1251.722, 423.637 1247.864, 414.411 1244.006, 405.185 1242.306, 401.120 1237.341, 392.440 1232.376, 383.759 1227.411, 375.079 1225.966, 372.552 1219.970, 364.549 1213.974, 356.546 1207.978, 348.543 1206.919, 347.130 1199.997, 339.913 1193.075, 332.696 1186.153, 325.479 1185.526, 324.825 1177.801, 318.475 1170.076, 312.125 1162.147, 305.608 1153.748, 300.180 1145.349, 294.753 1137.142, 289.449 1128.197, 284.978 1119.252, 280.508 1110.872, 276.320 1101.502, 272.827 1092.132, 269.335 1083.697, 266.191 1074.015, 263.691 1064.333, 261.191 1055.978, 259.034 1046.090, 257.540 1036.202, 256.047 1028.074, 254.819 1018.085, 254.350 1008.096, 253.881 1000.347, 253.517 990.364, 254.098 980.381, 254.679 973.156, 255.100 963.281, 256.671 953.405, 258.243 944.846, 259.605 935.181, 262.172 925.517, 264.740 917.753, 266.802 908.403, 270.350 899.054, 273.898 891.996, 276.576 883.065, 281.074 874.133, 285.572 867.698, 288.813 859.283, 294.214 850.867, 299.616 844.978, 303.396 837.170, 309.643 829.361, 315.890 823.958, 320.213 816.838, 327.234 809.718, 334.256 804.758, 339.147 798.398, 346.863 792.037, 354.580 787.499, 360.084 781.957, 368.408 776.415, 376.732 772.302, 382.909 767.626, 391.749 762.949, 400.588 759.288, 407.508 755.510, 416.767 751.733, 426.027 748.576, 433.765 745.719, 443.349 742.863, 452.932 740.289, 461.567 730.289, 461.502 723.233, 461.457 724.234, 457.131 725.263, 452.871 726.328, 448.667 727.437, 444.506 728.599, 440.375 729.823, 436.261 731.117, 432.154 732.491, 428.040 733.951, 423.907 735.507, 419.743 737.168, 415.535 738.941, 411.271 729.843, 407.120 720.745, 402.970 711.647, 398.820 702.549, 394.669 693.451, 390.519 684.353, 386.368 675.255, 382.218 666.565, 378.253 666.563, 368.253 666.562, 361.357 666.559, 351.357 666.557, 343.082 666.555, 333.082 666.553, 323.889 666.550, 313.889 666.548, 304.236 666.545, 294.236 666.543, 284.584 666.540, 274.584 666.538, 265.390 666.536, 255.390 666.534, 247.116 666.532, 237.116 666.530, 230.219 666.529, 220.219 666.528, 215.161 666.527, 205.161 666.527, 202.399 666.527, 192.394 666.529, 185.604 676.529, 185.614 683.638, 185.621 693.638, 185.632 702.437, 185.641 712.437, 185.652 722.377, 185.662 732.377, 185.673 742.377, 185.684 742.866, 185.684 752.866, 185.695 762.866, 185.706 763.376, 185.706 773.376, 185.717 783.316, 185.727 793.316, 185.738 802.115, 185.747 812.115, 185.757 819.203, 185.764 829.203, 185.774 834.010, 185.778 844.010, 185.787 845.966, 185.788 854.499, 185.793 859.040, 185.793 861.784, 191.830 864.534, 197.885 867.288, 203.950 870.045, 210.022 872.802, 216.094 875.557, 222.159 878.307, 228.214 881.050, 234.251 883.785, 240.265 886.508, 246.251 889.218, 252.203 891.912, 258.114 901.268, 254.583 910.624, 251.052 913.509, 249.963 923.120, 247.201 932.732, 244.439 934.869, 243.825 944.668, 241.827 954.466, 239.828 955.888, 239.539 965.809, 238.287 975.730, 237.035 976.460, 236.943 986.446, 236.410 996.481, 235.875 1006.480, 236.029 1015.846, 236.174 1025.814, 236.980 1034.451, 237.678 1044.349, 239.100 1052.191, 240.226 1061.988, 242.229 1068.961, 243.655 1078.629, 246.210 1084.657, 247.803 1094.169, 250.888 1099.173, 252.510 1108.503, 256.109 1112.406, 257.614 1115.205, 251.451 1118.138, 244.993 1121.162, 238.338 1124.231, 231.584 1127.299, 224.830 1130.323, 218.174 1133.257, 211.716 1136.056, 205.554 1138.674, 199.786 1141.068, 194.512 1143.192, 189.829 1145.001, 185.837 1155.001, 185.833 1165.001, 185.829 1175.001, 185.825 1185.001, 185.821 1195.001, 185.817 1205.001, 185.813 1215.001, 185.809 1225.001, 185.805 1235.001, 185.802 1245.001, 185.798 1255.001, 185.794 1265.001, 185.790 1275.001, 185.786 1285.001, 185.782 1295.001, 185.778 1305.001, 185.774 1315.001, 185.770 1325.001, 185.766 1335.001, 185.762 1338.212, 185.761 1338.226, 195.666 1338.234, 205.666 1338.237, 209.435 1338.241, 219.435 1338.245, 226.242 1338.247, 236.242 1338.250, 245.262 1338.251, 255.262 1338.252, 265.262 1338.253, 265.668 1338.253, 275.668 1338.253, 285.668 1338.253, 286.636 1338.252, 296.636 1338.251, 306.636 1338.250, 307.339 1338.248, 317.339 1338.246, 326.952 1338.243, 336.952 1338.240, 344.650 1338.235, 354.650 1338.232, 359.606 1338.224, 369.606 1338.222, 370.995 1338.211, 377.992 1329.395, 382.008 1320.968, 385.838 1312.969, 389.468 1305.433, 392.882 1298.398, 396.067 1291.900, 399.008 1285.976, 401.690 1280.664, 404.099 1275.999, 406.219 1272.019, 408.037 1268.761, 409.537 1266.260, 410.706 1267.657, 413.989 1269.087, 417.521 1270.531, 421.250 1271.969, 425.121 1273.379, 429.082 1274.741, 433.079 1276.035, 437.060 1277.241, 440.970 1278.338, 444.757 1279.305, 448.367 1280.123, 451.748 1280.770, 454.845 1271.970, 454.816 1261.970, 454.793 1261.518, 454.792 1251.518, 454.777 1249.741, 454.775 1239.741, 454.765 1236.962, 454.762 1226.962, 454.756 1223.509, 454.754 1213.509, 454.751 1209.705, 454.750 1199.705, 454.749 1189.705, 454.749 1182.363, 454.748 " />
            <path fill="none" stroke-width="3.0" stroke-linecap="butt" stroke-opacity="1.0" stroke="rgb(0, 0, 0)" stroke-linejoin="miter" d=" M 1002.928, 282.750 1012.917, 283.230 1022.905, 283.710 1028.690, 283.987 1038.571, 285.524 1048.452, 287.061 1052.961, 287.762 1062.627, 290.324 1072.294, 292.886 1075.729, 293.797 1085.085, 297.327 1094.441, 300.857 1096.979, 301.814 1105.948, 306.237 1114.917, 310.659 1116.698, 311.538 1125.221, 316.769 1133.744, 321.999 1134.872, 322.692 1142.908, 328.644 1150.944, 334.596 1151.487, 334.998 1159.008, 341.589 1166.529, 348.181 1173.515, 355.336 1179.985, 361.963 1186.419, 369.619 1191.840, 376.068 1197.702, 384.170 1202.080, 390.220 1207.341, 398.724 1210.693, 404.140 1204.553, 404.133 1198.463, 404.134 1192.406, 404.140 1186.365, 404.148 1180.325, 404.156 1174.268, 404.161 1168.178, 404.162 1162.038, 404.155 1155.833, 404.138 1149.545, 404.109 1143.159, 404.065 1136.656, 404.004 1130.930, 397.157 1124.066, 390.152 1116.567, 383.536 1116.109, 383.132 1108.167, 377.055 1107.101, 376.239 1098.760, 370.722 1097.087, 369.615 1088.384, 364.690 1086.111, 363.404 1077.080, 359.109 1074.216, 357.747 1064.894, 354.126 1061.446, 352.787 1051.876, 349.887 1047.846, 348.666 1038.076, 346.534 1033.459, 345.526 1023.546, 344.206 1018.328, 343.511 1008.340, 343.038 1002.499, 342.762 992.515, 343.329 982.783, 343.883 972.924, 345.556 963.065, 347.229 953.449, 349.975 943.833, 352.720 943.612, 352.784 934.357, 356.571 925.102, 360.359 924.690, 360.527 915.918, 365.327 907.145, 370.127 906.568, 370.442 898.405, 376.218 890.242, 381.994 889.512, 382.510 882.091, 389.213 874.670, 395.916 873.788, 396.713 867.244, 404.274 860.700, 411.836 859.665, 413.032 854.125, 421.357 848.585, 429.682 847.408, 431.450 842.980, 440.416 838.552, 449.383 837.285, 451.948 834.047, 461.409 830.809, 470.870 829.564, 474.508 827.551, 484.304 825.539, 494.099 824.509, 499.112 823.788, 505.277 823.323, 511.290 823.087, 517.132 823.053, 522.787 823.196, 528.236 823.487, 533.462 823.902, 538.447 824.413, 543.174 824.993, 547.625 825.616, 551.782 826.256, 555.627 826.885, 559.144 820.270, 559.109 812.005, 559.084 802.326, 559.067 792.326, 559.058 791.469, 559.057 781.469, 559.054 779.670, 559.053 769.670, 559.054 767.164, 559.054 757.164, 559.056 754.186, 559.057 744.186, 559.060 740.973, 559.062 730.973, 559.065 727.760, 559.066 717.760, 559.069 714.803, 559.069 704.803, 559.070 702.276, 559.070 692.276, 559.066 690.476, 559.066 690.497, 552.816 690.516, 546.751 690.533, 540.847 690.548, 535.075 690.563, 529.410 690.577, 523.824 690.590, 518.292 690.603, 512.786 690.616, 507.280 690.629, 501.748 690.642, 496.162 690.657, 490.497 696.491, 490.530 702.577, 490.550 708.852, 490.560 715.256, 490.562 721.728, 490.559 728.185, 490.555 734.607, 490.551 740.914, 490.550 747.064, 490.556 752.954, 490.572 758.545, 490.599 763.774, 490.641 765.936, 480.878 768.099, 471.114 769.889, 463.033 773.054, 453.547 776.219, 444.061 778.778, 436.393 782.927, 427.294 787.076, 418.195 790.361, 410.991 795.470, 402.394 800.579, 393.798 804.560, 387.098 810.596, 379.125 816.631, 371.151 821.298, 364.986 828.211, 357.760 835.125, 350.535 840.495, 344.923 848.219, 338.572 855.943, 332.221 862.072, 327.181 870.516, 321.824 878.960, 316.466 885.952, 312.030 895.000, 307.771 904.047, 303.512 912.057, 299.741 921.569, 296.658 931.082, 293.574 940.306, 290.584 950.131, 288.720 959.955, 286.855 969.780, 284.990 970.623, 284.830 980.602, 284.188 990.581, 283.545 1000.561, 282.902 1002.928, 282.750 " />
            <path fill="none" stroke-width="3.0" stroke-linecap="butt" stroke-opacity="1.0" stroke="rgb(0, 0, 0)" stroke-linejoin="miter" d=" M 608.697, 376.822 615.869, 376.820 622.418, 376.819 628.137, 376.820 632.818, 376.822 636.253, 376.827 638.235, 376.833 638.235, 378.494 638.236, 380.062 638.236, 381.566 638.237, 383.039 638.237, 384.512 638.238, 386.016 638.238, 387.583 638.238, 389.245 638.238, 391.032 638.238, 392.976 638.237, 395.108 638.235, 397.461 643.817, 399.999 649.796, 402.720 656.042, 405.563 662.420, 408.466 668.798, 411.369 675.043, 414.212 681.023, 416.933 686.604, 419.471 691.654, 421.767 696.041, 423.758 699.630, 425.385 702.290, 426.586 701.360, 429.457 700.456, 432.443 699.580, 435.512 698.734, 438.631 697.920, 441.769 697.140, 444.892 696.396, 447.969 695.689, 450.968 695.022, 453.855 694.397, 456.599 693.816, 459.168 693.280, 461.529 690.532, 461.526 687.747, 461.521 684.888, 461.514 682.003, 461.505 679.118, 461.497 676.260, 461.489 673.454, 461.484 670.726, 461.482 668.104, 461.484 665.613, 461.492 663.280, 461.506 661.130, 461.529 661.130, 471.529 661.130, 472.823 661.130, 482.823 661.130, 485.279 661.130, 495.279 661.130, 498.508 661.130, 508.508 661.130, 512.124 661.130, 522.124 661.130, 525.739 661.130, 535.739 661.130, 538.968 661.130, 548.968 661.130, 551.424 661.130, 561.424 661.130, 562.718 661.130, 572.466 661.130, 580.279 661.130, 585.770 661.130, 588.554 663.598, 588.541 666.184, 588.533 668.891, 588.528 671.640, 588.527 674.477, 588.528 677.365, 588.531 680.308, 588.535 683.246, 588.540 686.184, 588.545 689.106, 588.550 694.810, 588.554 695.355, 590.963 695.922, 593.380 696.510, 595.798 697.116, 598.211 697.737, 600.613 698.370, 602.996 699.014, 605.356 699.665, 607.686 700.321, 609.979 700.980, 612.229 701.639, 614.430 702.294, 616.575 696.651, 619.138 690.511, 621.926 684.041, 624.864 677.406, 627.876 670.771, 630.889 664.301, 633.827 658.161, 636.615 652.517, 639.178 647.534, 641.441 643.378, 643.329 640.212, 644.766 638.203, 645.679 638.203, 647.318 638.203, 648.805 638.203, 650.190 638.202, 651.525 638.202, 652.859 638.202, 654.245 638.202, 655.732 638.202, 657.371 638.202, 659.213 638.204, 661.309 638.205, 663.710 638.208, 666.466 632.063, 666.460 625.948, 666.447 619.853, 666.428 613.768, 666.407 607.684, 666.386 601.589, 666.368 595.474, 666.354 589.329, 666.348 583.144, 666.353 576.909, 666.369 570.613, 666.401 564.247, 666.451 564.295, 657.679 564.312, 647.679 564.325, 640.416 564.330, 630.416 564.335, 620.416 564.337, 616.370 564.337, 606.370 564.337, 596.370 564.337, 587.252 564.333, 577.252 564.330, 567.252 564.326, 557.252 564.326, 554.771 564.320, 544.771 564.315, 534.771 564.309, 524.771 564.307, 520.636 564.301, 510.636 564.294, 500.636 564.287, 490.636 564.284, 486.558 564.277, 476.558 564.270, 466.558 564.262, 456.558 564.261, 454.244 564.253, 444.244 564.245, 434.244 564.238, 425.405 564.231, 415.405 564.224, 405.405 564.221, 401.751 564.215, 391.751 564.211, 384.990 564.213, 376.833 574.213, 376.832 577.913, 376.831 585.500, 376.829 593.294, 376.826 601.089, 376.824 608.697, 376.822 " />
            <path fill="none" stroke-width="3.0" stroke-linecap="butt" stroke-opacity="1.0" stroke="rgb(0, 0, 0)" stroke-linejoin="miter" d=" M 1367.321, 379.538 1367.319, 376.782 1373.464, 376.788 1379.579, 376.801 1385.673, 376.820 1391.758, 376.841 1397.843, 376.862 1403.938, 376.880 1410.052, 376.894 1416.197, 376.899 1422.382, 376.895 1428.618, 376.878 1434.913, 376.846 1441.279, 376.797 1441.231, 385.569 1441.214, 395.569 1441.202, 402.832 1441.196, 412.832 1441.191, 422.832 1441.189, 426.878 1441.189, 436.878 1441.190, 446.878 1441.190, 455.996 1441.193, 465.996 1441.197, 475.996 1441.200, 485.996 1441.201, 488.477 1441.206, 498.477 1441.212, 508.477 1441.217, 518.477 1441.219, 522.612 1441.226, 532.612 1441.233, 542.612 1441.239, 552.612 1441.242, 556.690 1441.249, 566.690 1441.257, 576.690 1441.264, 586.690 1441.266, 589.004 1441.274, 599.004 1441.281, 609.004 1441.288, 617.843 1441.295, 627.843 1441.303, 637.843 1441.306, 641.497 1441.311, 651.497 1441.315, 658.258 1441.314, 666.415 1434.765, 666.415 1427.593, 666.417 1420.006, 666.419 1412.211, 666.422 1404.417, 666.424 1396.830, 666.426 1389.658, 666.428 1383.109, 666.429 1377.390, 666.428 1372.709, 666.426 1369.274, 666.421 1367.291, 666.415 1367.291, 664.754 1367.291, 663.186 1367.290, 661.682 1367.290, 660.209 1367.289, 658.736 1367.289, 657.232 1367.288, 655.665 1367.288, 654.003 1367.288, 652.216 1367.289, 650.272 1367.290, 648.140 1367.291, 645.787 1361.710, 643.249 1355.730, 640.528 1349.485, 637.685 1343.107, 634.782 1336.729, 631.879 1330.483, 629.036 1324.504, 626.315 1318.922, 623.777 1313.872, 621.481 1309.486, 619.490 1305.897, 617.863 1303.237, 616.661 1304.167, 613.791 1305.071, 610.805 1305.947, 607.736 1306.792, 604.617 1307.606, 601.479 1308.386, 598.355 1309.131, 595.278 1309.837, 592.280 1310.504, 589.392 1311.129, 586.648 1311.710, 584.080 1312.246, 581.719 1314.994, 581.721 1317.779, 581.727 1320.638, 581.734 1323.523, 581.743 1326.408, 581.751 1329.267, 581.759 1332.073, 581.764 1334.800, 581.766 1337.422, 581.764 1339.913, 581.756 1342.247, 581.742 1344.396, 581.719 1344.396, 571.719 1344.396, 570.425 1344.396, 560.425 1344.396, 557.969 1344.396, 547.969 1344.396, 544.740 1344.396, 534.740 1344.396, 531.124 1344.396, 521.124 1344.396, 517.508 1344.396, 507.508 1344.396, 504.279 1344.396, 494.279 1344.396, 491.824 1344.396, 481.824 1344.396, 480.529 1344.396, 470.782 1344.396, 462.969 1344.396, 457.478 1344.396, 454.694 1341.928, 454.707 1339.343, 454.715 1336.656, 454.720 1333.886, 454.721 1331.049, 454.720 1328.161, 454.717 1325.240, 454.713 1322.301, 454.708 1319.363, 454.703 1316.442, 454.698 1313.554, 454.695 1310.716, 454.694 1310.172, 452.285 1309.604, 449.868 1309.016, 447.450 1308.411, 445.037 1307.790, 442.635 1307.156, 440.252 1306.512, 437.892 1305.861, 435.562 1305.205, 433.269 1304.546, 431.019 1303.888, 428.818 1303.232, 426.673 1308.876, 424.110 1315.015, 421.322 1321.485, 418.384 1328.120, 415.372 1334.756, 412.359 1341.226, 409.421 1347.365, 406.633 1353.009, 404.070 1357.992, 401.807 1362.149, 399.919 1365.314, 398.482 1367.323, 397.569 1367.323, 395.930 1367.323, 394.443 1367.324, 393.058 1367.324, 391.723 1367.324, 390.388 1367.325, 389.003 1367.325, 387.516 1367.324, 385.877 1367.324, 384.035 1367.323, 381.939 1367.321, 379.538 " />
            <path fill="none" stroke-width="3.0" stroke-linecap="butt" stroke-opacity="1.0" stroke="rgb(0, 0, 0)" stroke-linejoin="miter" d=" M 1019.493, 404.932 1009.516, 404.260 1003.504, 403.856 993.527, 404.527 987.515, 404.932 977.717, 406.935 972.178, 408.067 962.732, 411.349 957.634, 413.121 948.697, 417.606 944.024, 419.952 935.738, 425.549 931.489, 428.420 923.983, 435.027 920.169, 438.384 913.562, 445.890 910.205, 449.704 904.607, 457.991 901.737, 462.239 897.251, 471.177 894.906, 475.849 891.623, 485.295 889.852, 490.393 887.849, 500.190 886.717, 505.729 886.045, 515.707 885.641, 521.719 886.312, 531.696 886.717, 537.708 888.720, 547.506 889.852, 553.045 893.134, 562.491 894.906, 567.589 899.391, 576.526 901.737, 581.198 907.334, 589.485 910.205, 593.734 916.812, 601.240 920.169, 605.054 927.675, 611.661 931.489, 615.018 939.776, 620.616 944.024, 623.486 952.962, 627.972 957.634, 630.317 967.080, 633.600 972.178, 635.371 981.975, 637.374 987.515, 638.506 997.492, 639.178 1003.504, 639.582 1013.481, 638.911 1019.493, 638.506 1029.291, 636.503 1034.830, 635.371 1044.276, 632.089 1049.374, 630.317 1058.311, 625.831 1062.983, 623.486 1071.270, 617.889 1075.519, 615.018 1083.025, 608.411 1086.839, 605.054 1093.446, 597.548 1096.803, 593.734 1102.401, 585.447 1105.271, 581.198 1109.757, 572.261 1112.102, 567.589 1115.384, 558.143 1117.156, 553.045 1119.158, 543.248 1120.291, 537.708 1120.962, 527.731 1121.367, 521.719 1120.695, 511.741 1120.291, 505.729 1118.288, 495.932 1117.156, 490.393 1113.873, 480.947 1112.102, 475.849 1107.616, 466.912 1105.271, 462.239 1099.673, 453.953 1096.803, 449.704 1090.196, 442.198 1086.839, 438.384 1079.332, 431.777 1075.519, 428.420 1067.232, 422.822 1062.983, 419.952 1054.046, 415.466 1049.374, 413.121 1039.928, 409.838 1034.830, 408.067 1025.033, 406.064 1019.493, 404.932 " />
            <path fill="none" stroke-width="3.0" stroke-linecap="butt" stroke-opacity="1.0" stroke="rgb(0, 0, 0)" stroke-linejoin="miter" d=" M 1002.828, 432.632 1012.809, 433.251 1015.243, 433.402 1025.004, 435.577 1028.094, 436.265 1037.377, 439.982 1041.246, 441.531 1049.824, 446.670 1054.565, 449.511 1054.561, 449.511 1047.490, 456.582 1040.419, 463.653 1033.348, 470.724 1026.277, 477.795 1019.206, 484.867 1012.135, 491.938 1005.064, 499.009 997.994, 506.080 990.923, 513.151 983.852, 520.223 976.781, 527.294 969.710, 534.365 962.639, 541.436 955.568, 548.507 948.497, 555.578 941.426, 562.650 934.355, 569.721 931.165, 572.911 925.944, 564.382 924.320, 561.730 920.327, 552.562 919.480, 550.615 916.801, 540.981 916.434, 539.664 915.083, 529.755 914.976, 528.972 914.898, 518.973 914.896, 518.640 915.985, 508.762 918.036, 499.438 920.840, 490.765 924.187, 482.840 927.870, 475.760 931.680, 469.624 935.409, 464.528 939.477, 459.739 945.060, 454.559 952.023, 449.297 960.232, 444.263 969.240, 439.920 969.552, 439.770 978.979, 436.433 979.848, 436.126 989.609, 433.950 990.985, 433.643 1000.949, 432.792 1002.828, 432.632 " />
            <path fill="none" stroke-width="3.0" stroke-linecap="butt" stroke-opacity="1.0" stroke="rgb(0, 0, 0)" stroke-linejoin="miter" d=" M 1182.363, 454.748 1182.349, 454.748 1182.370, 454.748 1182.363, 454.748 " />
            <path fill="none" stroke-width="3.0" stroke-linecap="butt" stroke-opacity="1.0" stroke="rgb(0, 0, 0)" stroke-linejoin="miter" d=" M 1060.189, 485.486 1067.254, 478.409 1074.318, 471.331 1075.472, 470.175 1075.787, 470.362 1077.378, 472.765 1079.870, 476.880 1082.874, 482.564 1086.005, 489.678 1088.874, 498.082 1091.095, 507.635 1092.211, 517.572 1092.281, 518.197 1092.073, 528.194 1092.044, 529.627 1090.384, 539.488 1089.997, 541.785 1086.838, 551.273 1085.754, 554.531 1081.158, 563.413 1078.926, 567.725 1073.052, 575.818 1069.127, 581.226 1061.594, 587.802 1055.909, 592.765 1047.453, 598.102 1042.746, 601.073 1033.537, 604.969 1029.811, 606.546 1020.092, 608.900 1017.275, 609.582 1007.309, 610.411 1005.310, 610.578 995.327, 610.001 994.089, 609.930 984.254, 608.122 983.782, 608.036 974.563, 605.292 966.603, 602.096 960.073, 598.844 955.147, 595.934 951.995, 593.762 953.154, 592.604 954.230, 591.523 955.251, 590.494 956.243, 589.491 957.236, 588.487 958.256, 587.458 959.332, 586.377 960.491, 585.219 961.762, 583.958 963.171, 582.569 964.747, 581.025 966.517, 579.301 973.284, 581.432 980.029, 582.918 986.747, 583.754 993.432, 583.934 1000.081, 583.454 1006.688, 582.310 1013.248, 580.496 1019.756, 578.008 1026.208, 574.842 1032.597, 570.992 1038.920, 566.454 1045.172, 561.224 1050.941, 554.204 1055.532, 546.978 1059.053, 539.646 1061.609, 532.308 1063.309, 525.065 1064.259, 518.019 1064.566, 511.268 1064.336, 504.915 1063.677, 499.060 1062.694, 493.803 1061.496, 489.245 1060.189, 485.486 " />
            <path fill="none" stroke-width="3.0" stroke-linecap="butt" stroke-opacity="1.0" stroke="rgb(0, 0, 0)" stroke-linejoin="miter" d=" M 1178.365, 484.062 1184.986, 484.066 1193.266, 484.077 1202.968, 484.094 1212.968, 484.113 1213.855, 484.115 1223.855, 484.137 1225.691, 484.141 1235.691, 484.163 1238.237, 484.169 1248.237, 484.192 1251.279, 484.200 1261.278, 484.223 1264.536, 484.231 1274.536, 484.255 1277.793, 484.262 1287.793, 484.286 1290.814, 484.293 1300.814, 484.315 1310.814, 484.337 1315.175, 484.347 1315.195, 490.593 1315.208, 496.646 1315.215, 502.532 1315.217, 508.281 1315.215, 513.919 1315.210, 519.473 1315.203, 524.973 1315.196, 530.445 1315.188, 535.917 1315.181, 541.416 1315.176, 546.971 1315.175, 552.609 1309.338, 552.614 1303.248, 552.627 1296.966, 552.646 1290.552, 552.669 1284.071, 552.695 1277.582, 552.722 1271.149, 552.748 1264.832, 552.770 1258.694, 552.788 1252.797, 552.798 1247.201, 552.800 1241.970, 552.792 1239.833, 562.560 1237.695, 572.329 1235.943, 580.335 1232.773, 589.819 1229.603, 599.304 1227.076, 606.867 1222.901, 615.954 1218.726, 625.040 1215.469, 632.132 1210.324, 640.707 1205.179, 649.282 1201.222, 655.876 1195.151, 663.822 1189.080, 671.768 1184.437, 677.844 1177.497, 685.043 1170.556, 692.242 1165.214, 697.782 1157.477, 704.117 1149.740, 710.453 1143.653, 715.436 1135.212, 720.797 1126.770, 726.158 1119.855, 730.550 1110.822, 734.841 1101.789, 739.132 1093.919, 742.871 1084.427, 746.018 1074.935, 749.164 1065.947, 752.143 1056.141, 754.101 1046.334, 756.058 1036.528, 758.016 1036.040, 758.113 1026.068, 758.871 1016.097, 759.628 1006.126, 760.386 1004.296, 760.525 994.303, 760.164 984.309, 759.803 977.807, 759.568 967.910, 758.135 958.013, 756.701 953.005, 755.975 943.319, 753.489 933.633, 751.003 929.876, 750.039 920.503, 746.553 911.131, 743.067 908.406, 742.054 899.431, 737.644 890.456, 733.234 888.582, 732.313 880.067, 727.070 871.552, 721.827 870.388, 721.110 862.374, 715.129 854.359, 709.149 853.811, 708.739 846.320, 702.114 838.836, 695.494 831.880, 688.310 825.449, 681.668 819.030, 674.000 813.636, 667.556 807.756, 659.467 803.382, 653.449 798.047, 644.991 794.674, 639.644 804.674, 639.638 806.941, 639.637 813.019, 639.630 819.082, 639.623 825.145, 639.615 831.223, 639.608 837.333, 639.603 843.490, 639.602 849.711, 639.604 856.010, 639.611 862.404, 639.624 868.909, 639.644 874.700, 646.461 881.657, 653.449 889.207, 660.006 889.730, 660.460 897.716, 666.480 898.869, 667.349 907.246, 672.811 909.023, 673.969 917.755, 678.842 920.142, 680.174 929.195, 684.421 932.175, 685.819 941.514, 689.394 945.073, 690.756 954.656, 693.611 958.784, 694.840 968.564, 696.924 973.258, 697.925 983.178, 699.191 988.446, 699.864 998.438, 700.272 1004.296, 700.511 1014.276, 699.872 1024.004, 699.249 1033.851, 697.505 1043.697, 695.761 1053.293, 692.947 1062.889, 690.133 1063.110, 690.068 1072.338, 686.214 1081.565, 682.360 1081.975, 682.189 1090.714, 677.327 1099.452, 672.464 1100.026, 672.145 1108.148, 666.311 1116.270, 660.477 1116.996, 659.955 1124.369, 653.199 1131.741, 646.443 1132.617, 645.640 1139.107, 638.032 1145.597, 630.424 1146.624, 629.220 1152.104, 620.856 1157.585, 612.491 1158.748, 610.715 1163.112, 601.717 1167.476, 592.720 1168.724, 590.145 1171.895, 580.661 1175.065, 571.177 1176.284, 567.531 1178.226, 557.721 1180.168, 547.911 1181.162, 542.891 1181.840, 536.744 1182.262, 530.793 1182.458, 525.046 1182.451, 519.514 1182.271, 514.204 1181.943, 509.127 1181.493, 504.292 1180.950, 499.708 1180.338, 495.383 1179.686, 491.328 1179.020, 487.551 1178.365, 484.062 " />
            <path fill="none" stroke-width="3.0" stroke-linecap="butt" stroke-opacity="1.0" stroke="rgb(0, 0, 0)" stroke-linejoin="miter" d=" M 1290.814, 484.293 1300.814, 484.315 1310.814, 484.337 1315.175, 484.347 " />
            <path fill="none" stroke-width="3.0" stroke-linecap="butt" stroke-opacity="1.0" stroke="rgb(0, 0, 0)" stroke-linejoin="miter" d=" M 689.106, 588.550 694.810, 588.554 " />
            <path fill="none" stroke-width="3.0" stroke-linecap="butt" stroke-opacity="1.0" stroke="rgb(0, 0, 0)" stroke-linejoin="miter" d=" M 794.674, 639.644 804.674, 639.638 806.941, 639.637 " />
            <path fill="none" stroke-width="3.0" stroke-linecap="butt" stroke-opacity="1.0" stroke="rgb(0, 0, 0)" stroke-linejoin="miter" d=" M 905.188, 827.604 907.671, 822.131 917.260, 824.969 924.092, 826.992 933.827, 829.279 940.460, 830.837 950.308, 832.572 956.757, 833.707 966.687, 834.893 972.969, 835.643 982.948, 836.288 989.079, 836.684 999.079, 836.801 1005.072, 836.871 1015.064, 836.476 1020.932, 836.245 1030.893, 835.357 1036.643, 834.845 1046.551, 833.487 1052.190, 832.714 1062.025, 830.906 1067.556, 829.890 1077.303, 827.657 1082.726, 826.415 1092.372, 823.780 1097.684, 822.329 1100.632, 828.796 1103.405, 834.869 1106.026, 840.605 1108.521, 846.060 1110.916, 851.290 1113.235, 856.351 1115.504, 861.300 1117.747, 866.192 1119.991, 871.085 1122.260, 876.034 1124.579, 881.095 1126.974, 886.325 1129.012, 886.325 1130.928, 886.325 1132.756, 886.325 1134.512, 886.325 1136.208, 886.325 1139.485, 886.325 1141.094, 886.325 1144.285, 886.325 1145.980, 886.325 1147.662, 886.345 1147.670, 888.359 1147.680, 891.763 1147.685, 896.341 1147.688, 901.899 1147.688, 908.239 1147.686, 915.166 1147.683, 922.485 1147.679, 929.999 1147.676, 937.513 1147.672, 944.832 1147.671, 951.759 1147.671, 958.099 1137.671, 958.104 1136.672, 958.104 1126.672, 958.106 1118.137, 958.107 1108.137, 958.107 1098.137, 958.107 1093.610, 958.108 1083.610, 958.107 1073.610, 958.107 1064.635, 958.106 1054.635, 958.106 1044.635, 958.105 1034.635, 958.104 1032.756, 958.104 1022.756, 958.103 1012.756, 958.102 1002.756, 958.101 999.518, 958.101 989.518, 958.100 979.518, 958.098 969.518, 958.097 966.463, 958.097 956.463, 958.096 946.463, 958.095 936.463, 958.094 935.136, 958.093 925.136, 958.092 915.136, 958.091 907.080, 958.090 897.080, 958.089 887.080, 958.088 883.840, 958.088 873.840, 958.088 863.840, 958.087 857.983, 958.087 858.017, 953.340 858.031, 948.159 858.028, 942.606 858.011, 936.744 857.982, 930.634 857.944, 924.338 857.901, 917.918 857.855, 911.436 857.808, 904.954 857.765, 898.534 857.727, 892.237 857.698, 886.127 859.576, 886.109 861.407, 886.097 863.177, 886.090 864.957, 886.088 866.690, 886.090 868.403, 886.095 870.124, 886.101 871.817, 886.108 873.490, 886.115 875.190, 886.121 878.635, 886.127 880.364, 882.329 882.332, 877.999 884.506, 873.211 886.851, 868.043 889.333, 862.571 891.919, 856.870 894.573, 851.016 897.261, 845.087 899.949, 839.158 902.603, 833.305 905.188, 827.604 " />
            <path fill="none" stroke-width="3.0" stroke-linecap="butt" stroke-opacity="1.0" stroke="rgb(0, 0, 0)" stroke-linejoin="miter" d=" M 1134.512, 886.325 1139.485, 886.325 1144.285, 886.325 " />
            <path fill="none" stroke-width="3.0" stroke-linecap="butt" stroke-opacity="1.0" stroke="rgb(0, 0, 0)" stroke-linejoin="miter" d=" M 1136.208, 886.325 1139.485, 886.325 " />
            <path fill="none" stroke-width="3.0" stroke-linecap="butt" stroke-opacity="1.0" stroke="rgb(0, 0, 0)" stroke-linejoin="miter" d=" M 1141.094, 886.325 1144.285, 886.325 " />
            <path fill="none" stroke-width="3.0" stroke-linecap="butt" stroke-opacity="1.0" stroke="rgb(0, 0, 0)" stroke-linejoin="miter" d=" M 883.840, 958.088 873.840, 958.088 863.840, 958.087 857.983, 958.087 " />
            <path fill="none" stroke-width="3.0" stroke-linecap="butt" stroke-opacity="1.0" stroke="rgb(0, 0, 0)" stroke-linejoin="miter" d=" M 828.993, 55.839 828.952, 65.839 828.912, 75.839 828.871, 85.839 828.831, 95.839 828.790, 105.839 828.750, 115.839 828.709, 125.839 828.669, 135.839 828.628, 145.838 828.588, 155.838 828.583, 157.004 818.583, 157.016 808.583, 157.029 798.583, 157.041 788.583, 157.054 778.583, 157.066 768.583, 157.079 758.583, 157.091 748.583, 157.104 738.583, 157.116 728.583, 157.129 718.583, 157.141 708.583, 157.153 698.583, 157.166 688.583, 157.178 678.583, 157.191 668.583, 157.203 658.583, 157.216 648.583, 157.228 638.255, 157.241 638.255, 167.241 638.255, 177.241 638.255, 187.241 638.255, 197.241 638.255, 207.241 638.255, 217.241 638.255, 227.241 638.255, 237.241 638.255, 247.241 638.255, 257.241 638.255, 267.241 638.255, 277.241 638.255, 287.241 638.255, 297.241 638.255, 307.241 638.255, 317.241 638.255, 327.241 638.255, 337.241 638.255, 347.693 628.255, 347.670 618.255, 347.647 608.255, 347.624 598.255, 347.601 588.255, 347.578 578.255, 347.555 568.255, 347.532 558.255, 347.509 548.255, 347.486 538.255, 347.464 534.913, 347.456 534.899, 357.456 534.885, 367.456 534.871, 377.456 534.856, 387.456 534.842, 397.456 534.828, 407.456 534.814, 417.456 534.800, 427.456 534.786, 437.456 534.772, 447.456 534.758, 457.456 534.743, 467.456 534.729, 477.456 534.715, 487.456 534.701, 497.456 534.687, 507.456 534.673, 517.456 534.659, 527.456 534.645, 537.456 534.630, 547.456 534.616, 557.456 534.602, 567.456 534.588, 577.456 534.574, 587.456 534.560, 597.456 534.546, 607.456 534.532, 617.456 534.518, 627.456 534.503, 637.456 534.489, 647.456 534.475, 657.456 534.461, 667.456 534.447, 677.455 534.433, 687.455 534.422, 695.430 544.422, 695.430 554.422, 695.430 564.422, 695.430 574.422, 695.430 584.422, 695.430 594.422, 695.430 604.422, 695.430 614.422, 695.430 624.422, 695.430 634.422, 695.430 638.126, 695.430 638.126, 705.430 638.126, 715.430 638.126, 725.430 638.126, 735.430 638.126, 745.430 638.126, 755.430 638.126, 765.430 638.126, 775.430 638.126, 785.430 638.126, 795.430 638.126, 805.430 638.126, 815.430 638.126, 825.430 638.126, 835.430 638.126, 845.430 638.126, 855.430 638.126, 865.430 638.126, 875.430 638.126, 886.127 648.126, 886.128 658.126, 886.128 668.126, 886.128 678.126, 886.128 688.126, 886.129 698.126, 886.129 708.126, 886.129 718.126, 886.129 728.126, 886.130 738.126, 886.130 748.126, 886.130 758.126, 886.130 768.126, 886.130 778.126, 886.131 788.126, 886.131 798.126, 886.131 808.126, 886.131 818.126, 886.132 828.352, 886.132 828.350, 896.132 828.348, 906.132 828.346, 916.132 828.344, 926.132 828.342, 936.132 828.340, 946.132 828.338, 956.132 828.336, 966.132 828.334, 976.132 828.332, 986.132 828.332, 987.374 838.332, 987.370 848.332, 987.366 858.332, 987.362 868.332, 987.358 878.332, 987.354 888.332, 987.350 898.332, 987.346 908.332, 987.342 918.332, 987.338 928.332, 987.334 938.332, 987.330 948.332, 987.325 958.332, 987.321 968.332, 987.317 978.332, 987.313 988.332, 987.309 998.332, 987.305 1008.332, 987.301 1018.332, 987.297 1028.332, 987.293 1038.332, 987.289 1048.332, 987.285 1058.332, 987.281 1068.332, 987.277 1078.332, 987.273 1088.332, 987.269 1098.332, 987.265 1108.332, 987.261 1118.332, 987.257 1128.332, 987.252 1138.332, 987.248 1148.332, 987.244 1158.332, 987.240 1168.332, 987.236 1176.698, 987.233 1176.698, 977.233 1176.698, 967.233 1176.698, 957.233 1176.698, 947.233 1176.698, 937.233 1176.698, 927.233 1176.698, 917.233 1176.698, 907.233 1176.698, 897.233 1176.698, 886.312 1186.698, 886.312 1196.698, 886.312 1206.698, 886.312 1216.698, 886.312 1226.698, 886.312 1236.698, 886.312 1246.698, 886.312 1256.698, 886.312 1266.698, 886.312 1276.698, 886.312 1286.698, 886.312 1296.698, 886.312 1306.698, 886.312 1316.698, 886.312 1326.698, 886.312 1336.698, 886.312 1346.698, 886.312 1356.698, 886.312 1367.310, 886.312 1367.310, 876.312 1367.310, 866.312 1367.310, 856.312 1367.310, 846.312 1367.310, 836.312 1367.310, 826.312 1367.310, 816.312 1367.310, 806.312 1367.310, 796.312 1367.310, 786.312 1367.310, 776.312 1367.310, 766.312 1367.310, 756.312 1367.310, 746.312 1367.310, 736.312 1367.310, 726.312 1367.310, 716.312 1367.310, 706.312 1367.310, 695.553 1377.310, 695.553 1387.310, 695.553 1397.310, 695.553 1407.310, 695.553 1417.310, 695.553 1427.310, 695.553 1437.310, 695.553 1447.310, 695.553 1457.310, 695.553 1467.310, 695.553 1470.456, 695.553 1470.456, 685.553 1470.456, 675.553 1470.456, 665.553 1470.456, 655.553 1470.456, 645.553 1470.456, 635.553 1470.456, 625.553 1470.456, 615.553 1470.456, 605.553 1470.456, 595.553 1470.456, 585.553 1470.456, 575.553 1470.456, 565.553 1470.456, 555.553 1470.456, 545.553 1470.456, 535.553 1470.456, 525.553 1470.456, 515.553 1470.456, 505.553 1470.456, 495.553 1470.456, 485.553 1470.456, 475.553 1470.456, 465.553 1470.456, 455.553 1470.456, 445.553 1470.456, 435.553 1470.456, 425.553 1470.456, 415.553 1470.456, 405.553 1470.456, 395.553 1470.456, 385.553 1470.456, 375.553 1470.456, 365.553 1470.456, 355.553 1470.456, 348.078 1460.456, 348.078 1450.456, 348.078 1440.456, 348.078 1430.456, 348.078 1420.456, 348.078 1410.456, 348.078 1400.456, 348.078 1390.456, 348.078 1380.456, 348.078 1370.456, 348.078 1367.173, 348.078 1367.173, 338.078 1367.173, 328.078 1367.173, 318.078 1367.173, 308.078 1367.173, 298.078 1367.173, 288.078 1367.173, 278.078 1367.173, 268.078 1367.173, 258.078 1367.173, 248.078 1367.173, 238.078 1367.173, 228.078 1367.173, 218.078 1367.173, 208.078 1367.173, 198.078 1367.173, 188.078 1367.173, 178.078 1367.173, 168.078 1367.173, 157.004 1357.173, 157.004 1347.173, 157.004 1337.173, 157.004 1327.173, 157.004 1317.173, 157.004 1307.173, 157.004 1297.173, 157.004 1287.173, 157.004 1277.173, 157.004 1267.173, 157.004 1257.173, 157.004 1247.173, 157.004 1237.173, 157.004 1227.173, 157.004 1217.173, 157.004 1207.173, 157.004 1197.173, 157.004 1187.173, 157.004 1176.721, 157.004 1176.680, 147.004 1176.640, 137.004 1176.599, 127.004 1176.558, 117.004 1176.518, 107.004 1176.477, 97.004 1176.436, 87.005 1176.396, 77.005 1176.355, 67.005 1176.311, 56.249 1166.311, 56.237 1156.311, 56.225 1146.311, 56.213 1136.311, 56.202 1126.311, 56.190 1116.311, 56.178 1106.311, 56.166 1096.311, 56.154 1086.311, 56.143 1076.311, 56.131 1066.311, 56.119 1056.311, 56.107 1046.311, 56.095 1036.311, 56.084 1026.311, 56.072 1016.311, 56.060 1006.311, 56.048 996.311, 56.036 986.311, 56.025 976.311, 56.013 966.311, 56.001 956.311, 55.989 946.311, 55.978 936.311, 55.966 926.311, 55.954 916.311, 55.942 906.311, 55.930 896.311, 55.919 886.311, 55.907 876.311, 55.895 866.311, 55.883 856.311, 55.871 846.311, 55.860 836.311, 55.848 828.993, 55.839 " />
            <path fill="none" stroke-width="3.0" stroke-linecap="butt" stroke-opacity="1.0" stroke="rgb(0, 0, 0)" stroke-linejoin="miter" d=" M 1032.763, 85.396 1042.763, 85.395 1052.763, 85.394 1062.763, 85.393 1064.642, 85.393 1074.642, 85.393 1084.642, 85.392 1093.616, 85.392 1103.616, 85.392 1113.616, 85.392 1118.143, 85.392 1128.143, 85.394 1136.678, 85.395 1146.678, 85.399 1147.677, 85.400 1147.677, 91.740 1147.679, 98.667 1147.682, 105.986 1147.686, 113.500 1147.690, 121.015 1147.693, 128.333 1147.695, 135.261 1147.695, 141.601 1147.692, 147.158 1147.686, 151.736 1147.677, 155.141 1147.663, 157.175 1145.966, 157.175 1144.313, 157.175 1142.689, 157.175 1141.080, 157.175 1139.471, 157.175 1137.847, 157.175 1136.194, 157.175 1134.497, 157.175 1132.742, 157.175 1130.914, 157.175 1128.998, 157.175 1126.980, 157.175 1124.585, 162.405 1122.266, 167.466 1119.997, 172.415 1117.754, 177.307 1115.510, 182.200 1113.242, 187.148 1110.922, 192.210 1108.528, 197.439 1106.032, 202.894 1103.411, 208.630 1100.639, 214.704 1097.690, 221.171 1088.044, 218.536 1082.732, 217.085 1072.985, 214.852 1067.562, 213.609 1057.727, 211.802 1052.196, 210.786 1042.289, 209.427 1036.650, 208.654 1026.689, 207.767 1020.939, 207.255 1010.946, 206.860 1005.079, 206.629 995.079, 206.746 989.086, 206.816 979.107, 207.461 972.975, 207.857 963.046, 209.042 956.764, 209.792 946.915, 211.526 940.466, 212.662 930.731, 214.949 924.099, 216.508 914.510, 219.346 907.677, 221.368 905.195, 215.896 902.609, 210.195 899.955, 204.342 897.267, 198.412 894.579, 192.483 891.925, 186.630 889.340, 180.929 886.857, 175.456 884.512, 170.288 882.338, 165.501 880.370, 161.170 878.642, 157.372 876.909, 157.374 875.196, 157.378 873.496, 157.384 871.803, 157.392 870.109, 157.399 868.409, 157.405 866.696, 157.409 864.964, 157.411 863.205, 157.409 861.413, 157.402 859.582, 157.390 857.705, 157.372 857.734, 151.262 857.771, 144.966 857.815, 138.546 857.861, 132.064 857.907, 125.582 857.950, 119.162 857.988, 112.866 858.017, 106.755 858.034, 100.893 858.038, 95.340 858.023, 90.159 857.989, 85.412 867.989, 85.412 877.989, 85.412 883.826, 85.412 893.826, 85.411 903.826, 85.410 907.065, 85.409 917.065, 85.408 927.065, 85.407 935.121, 85.406 945.121, 85.405 955.121, 85.404 965.121, 85.403 966.448, 85.402 976.448, 85.401 986.448, 85.400 996.448, 85.399 999.503, 85.399 1009.503, 85.398 1019.503, 85.397 1029.503, 85.396 1032.763, 85.396 " />
            <path fill="none" stroke-width="3.0" stroke-linecap="butt" stroke-opacity="1.0" stroke="rgb(0, 0, 0)" stroke-linejoin="miter" d=" M 1182.363, 454.748 1172.363, 454.749 1169.469, 454.750 1159.469, 454.751 1157.519, 454.752 1147.519, 454.753 1146.846, 454.753 1137.754, 454.754 1139.960, 458.776 1143.078, 466.137 1146.262, 475.616 1146.540, 476.442 1148.985, 486.138 1149.780, 489.294 1151.394, 499.163 1152.233, 504.297 1152.888, 514.275 1153.332, 521.053 1152.879, 531.043 1152.511, 539.167 1150.802, 549.020 1149.203, 558.243 1146.122, 567.756 1143.041, 577.270 1142.842, 577.883 1138.343, 586.813 1133.844, 595.744 1132.863, 597.691 1127.001, 605.793 1121.140, 613.895 1118.698, 617.270 1111.634, 624.349 1104.570, 631.427 1099.781, 636.225 1091.568, 641.929 1083.354, 647.633 1079.259, 650.477 1070.316, 654.951 1061.372, 659.425 1058.447, 660.889 1048.942, 663.997 1039.437, 667.105 1037.561, 667.718 1027.700, 669.383 1017.840, 671.049 1016.818, 671.221 1006.820, 671.434 996.822, 671.648 996.434, 671.656 986.505, 670.464 976.625, 669.279 966.946, 666.769 957.609, 664.347 948.328, 660.622 939.600, 657.118 930.846, 652.284 922.815, 647.849 914.701, 642.004 907.471, 636.796 900.108, 630.030 893.783, 624.218 887.293, 616.610 881.969, 610.370 871.969, 610.370 861.969, 610.370 851.969, 610.370 841.969, 610.370 831.969, 610.370 821.969, 610.370 811.969, 610.370 801.969, 610.370 791.969, 610.370 781.969, 610.370 771.969, 610.370 761.969, 610.370 751.969, 610.370 749.950, 610.370 753.729, 619.628 757.507, 628.887 761.286, 638.145 761.893, 639.632 766.732, 648.383 771.571, 657.134 776.410, 665.885 776.695, 666.401 782.519, 674.531 788.342, 682.660 794.062, 690.645 800.775, 698.057 807.488, 705.469 813.699, 712.327 821.194, 718.947 828.690, 725.566 835.311, 731.414 843.478, 737.185 851.645, 742.955 858.603, 747.872 867.333, 752.751 876.062, 757.630 883.281, 761.665 892.466, 765.619 901.651, 769.574 909.049, 772.759 918.588, 775.762 928.127, 778.764 935.613, 781.121 945.406, 783.145 955.199, 785.169 962.678, 786.715 972.626, 787.733 982.574, 788.751 989.949, 789.506 999.949, 789.490 1009.949, 789.474 1017.131, 789.462 1027.063, 788.300 1036.995, 787.138 1046.927, 785.976 1055.955, 784.919 1065.645, 782.446 1075.334, 779.973 1085.023, 777.500 1091.078, 775.954 1100.349, 772.205 1109.619, 768.455 1118.889, 764.706 1122.619, 763.197 1131.318, 758.266 1140.017, 753.334 1148.717, 748.402 1150.696, 747.280 1158.712, 741.302 1166.728, 735.324 1174.744, 729.345 1175.429, 728.834 1182.694, 721.963 1189.960, 715.092 1196.938, 708.491 1203.422, 700.878 1209.906, 693.265 1215.343, 686.882 1221.039, 678.663 1226.736, 670.444 1230.761, 664.637 1235.675, 655.928 1240.589, 647.218 1243.314, 642.389 1247.444, 633.282 1251.575, 624.175 1253.119, 620.769 1256.444, 611.338 1259.769, 601.907 1260.297, 600.408 1262.749, 590.713 1264.967, 581.938 1274.967, 581.938 1282.023, 581.938 1281.137, 586.514 1280.130, 590.994 1279.017, 595.383 1277.812, 599.689 1276.530, 603.918 1275.187, 608.077 1273.798, 612.174 1272.377, 616.214 1270.939, 620.206 1269.500, 624.155 1268.075, 628.068 1266.679, 631.953 1275.779, 636.100 1284.879, 640.246 1293.979, 644.393 1303.078, 648.540 1312.178, 652.686 1321.278, 656.833 1330.378, 660.979 1338.173, 664.532 1338.156, 674.532 1338.140, 684.532 1338.123, 694.532 1338.106, 704.532 1338.089, 714.532 1338.072, 724.532 1338.055, 734.532 1338.038, 744.532 1338.021, 754.532 1338.004, 764.532 1337.987, 774.532 1337.970, 784.532 1337.953, 794.532 1337.936, 804.532 1337.919, 814.532 1337.902, 824.532 1337.885, 834.531 1337.868, 844.531 1337.851, 854.531 1337.847, 857.141 1327.847, 857.125 1317.847, 857.108 1307.847, 857.091 1297.847, 857.074 1287.847, 857.057 1277.847, 857.040 1267.847, 857.023 1257.847, 857.006 1247.847, 856.989 1237.847, 856.972 1227.847, 856.955 1217.847, 856.938 1207.847, 856.921 1197.847, 856.905 1187.847, 856.888 1177.847, 856.871 1167.847, 856.854 1157.847, 856.837 1147.847, 856.820 1144.911, 856.815 1140.776, 847.710 1136.641, 838.605 1132.506, 829.500 1128.371, 820.395 1124.236, 811.289 1120.101, 802.184 1115.967, 793.079 1112.591, 785.647 1103.199, 789.081 1093.807, 792.514 1088.418, 794.484 1078.767, 797.102 1069.116, 799.721 1064.893, 800.867 1055.058, 802.673 1045.222, 804.480 1042.135, 805.047 1032.187, 806.060 1022.238, 807.074 1020.264, 807.275 1010.267, 807.528 1000.270, 807.781 999.400, 807.803 989.410, 807.337 979.661, 806.882 969.726, 805.744 961.169, 804.763 951.325, 803.001 944.042, 801.698 934.319, 799.360 928.400, 797.937 918.820, 795.067 914.362, 793.732 904.945, 790.368 902.049, 789.334 892.811, 785.505 891.580, 784.994 888.785, 791.030 886.012, 797.055 883.258, 803.071 880.520, 809.078 877.795, 815.079 875.079, 821.076 872.369, 827.069 869.663, 833.060 866.956, 839.052 864.246, 845.045 861.531, 851.042 858.805, 857.043 848.805, 857.037 838.805, 857.032 828.805, 857.026 818.805, 857.021 808.805, 857.016 798.805, 857.010 788.805, 857.005 778.805, 856.999 768.805, 856.994 758.805, 856.988 748.805, 856.983 738.805, 856.977 728.805, 856.972 718.805, 856.966 708.805, 856.961 698.805, 856.956 688.805, 856.950 678.805, 856.945 668.805, 856.939 666.547, 856.938 666.542, 846.938 666.538, 836.938 666.533, 826.938 666.528, 816.938 666.523, 806.938 666.519, 796.938 666.514, 786.938 666.509, 776.938 666.505, 766.938 666.500, 756.938 666.495, 746.938 666.490, 736.938 666.486, 726.938 666.481, 716.938 666.476, 706.938 666.471, 696.938 666.467, 686.938 666.462, 676.938 666.457, 666.938 666.456, 664.016 675.565, 659.889 684.674, 655.762 693.783, 651.636 702.891, 647.509 712.000, 643.383 721.109, 639.256 730.218, 635.129 738.614, 631.326 737.403, 627.693 736.111, 623.968 734.766, 620.183 733.394, 616.367 732.022, 612.551 730.676, 608.765 729.385, 605.041 728.174, 601.407 727.071, 597.896 726.102, 594.537 725.294, 591.361 724.675, 588.398 734.675, 588.397 736.680, 588.397 746.680, 588.404 748.781, 588.405 758.781, 588.417 760.946, 588.419 770.946, 588.433 773.143, 588.436 783.143, 588.450 785.340, 588.454 795.340, 588.465 797.505, 588.468 807.505, 588.475 809.606, 588.476 819.606, 588.475 821.611, 588.475 831.611, 588.464 833.489, 588.462 843.489, 588.439 845.207, 588.434 855.207, 588.395 856.733, 588.389 866.733, 588.329 868.036, 588.322 863.821, 579.254 862.162, 575.685 858.869, 566.243 857.469, 562.226 855.140, 552.501 854.079, 548.068 852.758, 538.156 852.115, 533.335 851.840, 523.339 851.698, 518.151 852.503, 508.184 852.951, 502.642 854.853, 492.824 855.995, 486.930 858.990, 477.389 860.952, 471.140 865.011, 462.001 867.944, 455.396 873.010, 446.774 877.094, 439.823 883.084, 431.815 888.523, 424.544 895.336, 417.224 902.149, 409.904 902.353, 409.685 910.307, 403.624 918.156, 397.643 926.827, 392.660 935.347, 387.764 944.582, 383.927 953.648, 380.161 963.296, 377.532 972.783, 374.947 982.690, 373.583 992.477, 372.236 1002.477, 372.189 1012.451, 372.142 1022.365, 373.450 1032.430, 374.777 1042.064, 377.455 1051.699, 380.133 1052.137, 380.255 1061.289, 384.284 1070.441, 388.313 1071.295, 388.689 1079.765, 394.004 1088.236, 399.320 1089.628, 400.193 1097.238, 406.680 1104.849, 413.167 1106.859, 414.880 1113.472, 422.381 1120.084, 429.883 1122.712, 432.863 1132.712, 432.866 1134.059, 432.866 1144.059, 432.873 1145.855, 432.875 1155.855, 432.884 1157.951, 432.886 1167.950, 432.897 1170.196, 432.900 1180.196, 432.911 1182.441, 432.913 1192.441, 432.923 1194.537, 432.925 1204.537, 432.932 1206.333, 432.934 1216.333, 432.936 1217.680, 432.937 1227.680, 432.933 1228.428, 432.933 1238.427, 432.921 1247.528, 432.898 1255.580, 432.863 1251.722, 423.637 1247.864, 414.411 1244.006, 405.185 1242.306, 401.120 1237.341, 392.440 1232.376, 383.759 1227.411, 375.079 1225.966, 372.552 1219.970, 364.549 1213.974, 356.546 1207.978, 348.543 1206.919, 347.130 1199.997, 339.913 1193.075, 332.696 1186.153, 325.479 1185.526, 324.825 1177.801, 318.475 1170.076, 312.125 1162.147, 305.608 1153.748, 300.180 1145.349, 294.753 1137.142, 289.449 1128.197, 284.978 1119.252, 280.508 1110.872, 276.320 1101.502, 272.827 1092.132, 269.335 1083.697, 266.191 1074.015, 263.691 1064.333, 261.191 1055.978, 259.034 1046.090, 257.540 1036.202, 256.047 1028.074, 254.819 1018.085, 254.350 1008.096, 253.881 1000.347, 253.517 990.364, 254.098 980.381, 254.679 973.156, 255.100 963.281, 256.671 953.405, 258.243 944.846, 259.605 935.181, 262.172 925.517, 264.740 917.753, 266.802 908.403, 270.350 899.054, 273.898 891.996, 276.576 883.065, 281.074 874.133, 285.572 867.698, 288.813 859.283, 294.214 850.867, 299.616 844.978, 303.396 837.170, 309.643 829.361, 315.890 823.958, 320.213 816.838, 327.234 809.718, 334.256 804.758, 339.147 798.398, 346.863 792.037, 354.580 787.499, 360.084 781.957, 368.408 776.415, 376.732 772.302, 382.909 767.626, 391.749 762.949, 400.588 759.288, 407.508 755.510, 416.767 751.733, 426.027 748.576, 433.765 745.719, 443.349 742.863, 452.932 740.289, 461.567 730.289, 461.502 723.233, 461.457 724.234, 457.131 725.263, 452.871 726.328, 448.667 727.437, 444.506 728.599, 440.375 729.823, 436.261 731.117, 432.154 732.491, 428.040 733.951, 423.907 735.507, 419.743 737.168, 415.535 738.941, 411.271 729.843, 407.120 720.745, 402.970 711.647, 398.820 702.549, 394.669 693.451, 390.519 684.353, 386.368 675.255, 382.218 666.565, 378.253 666.563, 368.253 666.562, 361.357 666.559, 351.357 666.557, 343.082 666.555, 333.082 666.553, 323.889 666.550, 313.889 666.548, 304.236 666.545, 294.236 666.543, 284.584 666.540, 274.584 666.538, 265.390 666.536, 255.390 666.534, 247.116 666.532, 237.116 666.530, 230.219 666.529, 220.219 666.528, 215.161 666.527, 205.161 666.527, 202.399 666.527, 192.394 666.529, 185.604 676.529, 185.614 683.638, 185.621 693.638, 185.632 702.437, 185.641 712.437, 185.652 722.377, 185.662 732.377, 185.673 742.377, 185.684 742.866, 185.684 752.866, 185.695 762.866, 185.706 763.376, 185.706 773.376, 185.717 783.316, 185.727 793.316, 185.738 802.115, 185.747 812.115, 185.757 819.203, 185.764 829.203, 185.774 834.010, 185.778 844.010, 185.787 845.966, 185.788 854.499, 185.793 859.040, 185.793 861.784, 191.830 864.534, 197.885 867.288, 203.950 870.045, 210.022 872.802, 216.094 875.557, 222.159 878.307, 228.214 881.050, 234.251 883.785, 240.265 886.508, 246.251 889.218, 252.203 891.912, 258.114 901.268, 254.583 910.624, 251.052 913.509, 249.963 923.120, 247.201 932.732, 244.439 934.869, 243.825 944.668, 241.827 954.466, 239.828 955.888, 239.539 965.809, 238.287 975.730, 237.035 976.460, 236.943 986.446, 236.410 996.481, 235.875 1006.480, 236.029 1015.846, 236.174 1025.814, 236.980 1034.451, 237.678 1044.349, 239.100 1052.191, 240.226 1061.988, 242.229 1068.961, 243.655 1078.629, 246.210 1084.657, 247.803 1094.169, 250.888 1099.173, 252.510 1108.503, 256.109 1112.406, 257.614 1115.205, 251.451 1118.138, 244.993 1121.162, 238.338 1124.231, 231.584 1127.299, 224.830 1130.323, 218.174 1133.257, 211.716 1136.056, 205.554 1138.674, 199.786 1141.068, 194.512 1143.192, 189.829 1145.001, 185.837 1155.001, 185.833 1165.001, 185.829 1175.001, 185.825 1185.001, 185.821 1195.001, 185.817 1205.001, 185.813 1215.001, 185.809 1225.001, 185.805 1235.001, 185.802 1245.001, 185.798 1255.001, 185.794 1265.001, 185.790 1275.001, 185.786 1285.001, 185.782 1295.001, 185.778 1305.001, 185.774 1315.001, 185.770 1325.001, 185.766 1335.001, 185.762 1338.212, 185.761 1338.226, 195.666 1338.234, 205.666 1338.237, 209.435 1338.241, 219.435 1338.245, 226.242 1338.247, 236.242 1338.250, 245.262 1338.251, 255.262 1338.252, 265.262 1338.253, 265.668 1338.253, 275.668 1338.253, 285.668 1338.253, 286.636 1338.252, 296.636 1338.251, 306.636 1338.250, 307.339 1338.248, 317.339 1338.246, 326.952 1338.243, 336.952 1338.240, 344.650 1338.235, 354.650 1338.232, 359.606 1338.224, 369.606 1338.222, 370.995 1338.211, 377.992 1329.395, 382.008 1320.968, 385.838 1312.969, 389.468 1305.433, 392.882 1298.398, 396.067 1291.900, 399.008 1285.976, 401.690 1280.664, 404.099 1275.999, 406.219 1272.019, 408.037 1268.761, 409.537 1266.260, 410.706 1267.657, 413.989 1269.087, 417.521 1270.531, 421.250 1271.969, 425.121 1273.379, 429.082 1274.741, 433.079 1276.035, 437.060 1277.241, 440.970 1278.338, 444.757 1279.305, 448.367 1280.123, 451.748 1280.770, 454.845 1271.970, 454.816 1261.970, 454.793 1261.518, 454.792 1251.518, 454.777 1249.741, 454.775 1239.741, 454.765 1236.962, 454.762 1226.962, 454.756 1223.509, 454.754 1213.509, 454.751 1209.705, 454.750 1199.705, 454.749 1189.705, 454.749 1182.363, 454.748 " />
            <path fill="none" stroke-width="3.0" stroke-linecap="butt" stroke-opacity="1.0" stroke="rgb(0, 0, 0)" stroke-linejoin="miter" d=" M 1002.928, 282.750 1012.917, 283.230 1022.905, 283.710 1028.690, 283.987 1038.571, 285.524 1048.452, 287.061 1052.961, 287.762 1062.627, 290.324 1072.294, 292.886 1075.729, 293.797 1085.085, 297.327 1094.441, 300.857 1096.979, 301.814 1105.948, 306.237 1114.917, 310.659 1116.698, 311.538 1125.221, 316.769 1133.744, 321.999 1134.872, 322.692 1142.908, 328.644 1150.944, 334.596 1151.487, 334.998 1159.008, 341.589 1166.529, 348.181 1173.515, 355.336 1179.985, 361.963 1186.419, 369.619 1191.840, 376.068 1197.702, 384.170 1202.080, 390.220 1207.341, 398.724 1210.693, 404.140 1204.553, 404.133 1198.463, 404.134 1192.406, 404.140 1186.365, 404.148 1180.325, 404.156 1174.268, 404.161 1168.178, 404.162 1162.038, 404.155 1155.833, 404.138 1149.545, 404.109 1143.159, 404.065 1136.656, 404.004 1130.930, 397.157 1124.066, 390.152 1116.567, 383.536 1116.109, 383.132 1108.167, 377.055 1107.101, 376.239 1098.760, 370.722 1097.087, 369.615 1088.384, 364.690 1086.111, 363.404 1077.080, 359.109 1074.216, 357.747 1064.894, 354.126 1061.446, 352.787 1051.876, 349.887 1047.846, 348.666 1038.076, 346.534 1033.459, 345.526 1023.546, 344.206 1018.328, 343.511 1008.340, 343.038 1002.499, 342.762 992.515, 343.329 982.783, 343.883 972.924, 345.556 963.065, 347.229 953.449, 349.975 943.833, 352.720 943.612, 352.784 934.357, 356.571 925.102, 360.359 924.690, 360.527 915.918, 365.327 907.145, 370.127 906.568, 370.442 898.405, 376.218 890.242, 381.994 889.512, 382.510 882.091, 389.213 874.670, 395.916 873.788, 396.713 867.244, 404.274 860.700, 411.836 859.665, 413.032 854.125, 421.357 848.585, 429.682 847.408, 431.450 842.980, 440.416 838.552, 449.383 837.285, 451.948 834.047, 461.409 830.809, 470.870 829.564, 474.508 827.551, 484.304 825.539, 494.099 824.509, 499.112 823.788, 505.277 823.323, 511.290 823.087, 517.132 823.053, 522.787 823.196, 528.236 823.487, 533.462 823.902, 538.447 824.413, 543.174 824.993, 547.625 825.616, 551.782 826.256, 555.627 826.885, 559.144 820.270, 559.109 812.005, 559.084 802.326, 559.067 792.326, 559.058 791.469, 559.057 781.469, 559.054 779.670, 559.053 769.670, 559.054 767.164, 559.054 757.164, 559.056 754.186, 559.057 744.186, 559.060 740.973, 559.062 730.973, 559.065 727.760, 559.066 717.760, 559.069 714.803, 559.069 704.803, 559.070 702.276, 559.070 692.276, 559.066 690.476, 559.066 690.497, 552.816 690.516, 546.751 690.533, 540.847 690.548, 535.075 690.563, 529.410 690.577, 523.824 690.590, 518.292 690.603, 512.786 690.616, 507.280 690.629, 501.748 690.642, 496.162 690.657, 490.497 696.491, 490.530 702.577, 490.550 708.852, 490.560 715.256, 490.562 721.728, 490.559 728.185, 490.555 734.607, 490.551 740.914, 490.550 747.064, 490.556 752.954, 490.572 758.545, 490.599 763.774, 490.641 765.936, 480.878 768.099, 471.114 769.889, 463.033 773.054, 453.547 776.219, 444.061 778.778, 436.393 782.927, 427.294 787.076, 418.195 790.361, 410.991 795.470, 402.394 800.579, 393.798 804.560, 387.098 810.596, 379.125 816.631, 371.151 821.298, 364.986 828.211, 357.760 835.125, 350.535 840.495, 344.923 848.219, 338.572 855.943, 332.221 862.072, 327.181 870.516, 321.824 878.960, 316.466 885.952, 312.030 895.000, 307.771 904.047, 303.512 912.057, 299.741 921.569, 296.658 931.082, 293.574 940.306, 290.584 950.131, 288.720 959.955, 286.855 969.780, 284.990 970.623, 284.830 980.602, 284.188 990.581, 283.545 1000.561, 282.902 1002.928, 282.750 " />
            <path fill="none" stroke-width="3.0" stroke-linecap="butt" stroke-opacity="1.0" stroke="rgb(0, 0, 0)" stroke-linejoin="miter" d=" M 608.697, 376.822 615.869, 376.820 622.418, 376.819 628.137, 376.820 632.818, 376.822 636.253, 376.827 638.235, 376.833 638.235, 378.494 638.236, 380.062 638.236, 381.566 638.237, 383.039 638.237, 384.512 638.238, 386.016 638.238, 387.583 638.238, 389.245 638.238, 391.032 638.238, 392.976 638.237, 395.108 638.235, 397.461 643.817, 399.999 649.796, 402.720 656.042, 405.563 662.420, 408.466 668.798, 411.369 675.043, 414.212 681.023, 416.933 686.604, 419.471 691.654, 421.767 696.041, 423.758 699.630, 425.385 702.290, 426.586 701.360, 429.457 700.456, 432.443 699.580, 435.512 698.734, 438.631 697.920, 441.769 697.140, 444.892 696.396, 447.969 695.689, 450.968 695.022, 453.855 694.397, 456.599 693.816, 459.168 693.280, 461.529 690.532, 461.526 687.747, 461.521 684.888, 461.514 682.003, 461.505 679.118, 461.497 676.260, 461.489 673.454, 461.484 670.726, 461.482 668.104, 461.484 665.613, 461.492 663.280, 461.506 661.130, 461.529 661.130, 471.529 661.130, 472.823 661.130, 482.823 661.130, 485.279 661.130, 495.279 661.130, 498.508 661.130, 508.508 661.130, 512.124 661.130, 522.124 661.130, 525.739 661.130, 535.739 661.130, 538.968 661.130, 548.968 661.130, 551.424 661.130, 561.424 661.130, 562.718 661.130, 572.466 661.130, 580.279 661.130, 585.770 661.130, 588.554 663.598, 588.541 666.184, 588.533 668.891, 588.528 671.640, 588.527 674.477, 588.528 677.365, 588.531 680.308, 588.535 683.246, 588.540 686.184, 588.545 689.106, 588.550 694.810, 588.554 695.355, 590.963 695.922, 593.380 696.510, 595.798 697.116, 598.211 697.737, 600.613 698.370, 602.996 699.014, 605.356 699.665, 607.686 700.321, 609.979 700.980, 612.229 701.639, 614.430 702.294, 616.575 696.651, 619.138 690.511, 621.926 684.041, 624.864 677.406, 627.876 670.771, 630.889 664.301, 633.827 658.161, 636.615 652.517, 639.178 647.534, 641.441 643.378, 643.329 640.212, 644.766 638.203, 645.679 638.203, 647.318 638.203, 648.805 638.203, 650.190 638.202, 651.525 638.202, 652.859 638.202, 654.245 638.202, 655.732 638.202, 657.371 638.202, 659.213 638.204, 661.309 638.205, 663.710 638.208, 666.466 632.063, 666.460 625.948, 666.447 619.853, 666.428 613.768, 666.407 607.684, 666.386 601.589, 666.368 595.474, 666.354 589.329, 666.348 583.144, 666.353 576.909, 666.369 570.613, 666.401 564.247, 666.451 564.295, 657.679 564.312, 647.679 564.325, 640.416 564.330, 630.416 564.335, 620.416 564.337, 616.370 564.337, 606.370 564.337, 596.370 564.337, 587.252 564.333, 577.252 564.330, 567.252 564.326, 557.252 564.326, 554.771 564.320, 544.771 564.315, 534.771 564.309, 524.771 564.307, 520.636 564.301, 510.636 564.294, 500.636 564.287, 490.636 564.284, 486.558 564.277, 476.558 564.270, 466.558 564.262, 456.558 564.261, 454.244 564.253, 444.244 564.245, 434.244 564.238, 425.405 564.231, 415.405 564.224, 405.405 564.221, 401.751 564.215, 391.751 564.211, 384.990 564.213, 376.833 574.213, 376.832 577.913, 376.831 585.500, 376.829 593.294, 376.826 601.089, 376.824 608.697, 376.822 " />
            <path fill="none" stroke-width="3.0" stroke-linecap="butt" stroke-opacity="1.0" stroke="rgb(0, 0, 0)" stroke-linejoin="miter" d=" M 1367.321, 379.538 1367.319, 376.782 1373.464, 376.788 1379.579, 376.801 1385.673, 376.820 1391.758, 376.841 1397.843, 376.862 1403.938, 376.880 1410.052, 376.894 1416.197, 376.899 1422.382, 376.895 1428.618, 376.878 1434.913, 376.846 1441.279, 376.797 1441.231, 385.569 1441.214, 395.569 1441.202, 402.832 1441.196, 412.832 1441.191, 422.832 1441.189, 426.878 1441.189, 436.878 1441.190, 446.878 1441.190, 455.996 1441.193, 465.996 1441.197, 475.996 1441.200, 485.996 1441.201, 488.477 1441.206, 498.477 1441.212, 508.477 1441.217, 518.477 1441.219, 522.612 1441.226, 532.612 1441.233, 542.612 1441.239, 552.612 1441.242, 556.690 1441.249, 566.690 1441.257, 576.690 1441.264, 586.690 1441.266, 589.004 1441.274, 599.004 1441.281, 609.004 1441.288, 617.843 1441.295, 627.843 1441.303, 637.843 1441.306, 641.497 1441.311, 651.497 1441.315, 658.258 1441.314, 666.415 1434.765, 666.415 1427.593, 666.417 1420.006, 666.419 1412.211, 666.422 1404.417, 666.424 1396.830, 666.426 1389.658, 666.428 1383.109, 666.429 1377.390, 666.428 1372.709, 666.426 1369.274, 666.421 1367.291, 666.415 1367.291, 664.754 1367.291, 663.186 1367.290, 661.682 1367.290, 660.209 1367.289, 658.736 1367.289, 657.232 1367.288, 655.665 1367.288, 654.003 1367.288, 652.216 1367.289, 650.272 1367.290, 648.140 1367.291, 645.787 1361.710, 643.249 1355.730, 640.528 1349.485, 637.685 1343.107, 634.782 1336.729, 631.879 1330.483, 629.036 1324.504, 626.315 1318.922, 623.777 1313.872, 621.481 1309.486, 619.490 1305.897, 617.863 1303.237, 616.661 1304.167, 613.791 1305.071, 610.805 1305.947, 607.736 1306.792, 604.617 1307.606, 601.479 1308.386, 598.355 1309.131, 595.278 1309.837, 592.280 1310.504, 589.392 1311.129, 586.648 1311.710, 584.080 1312.246, 581.719 1314.994, 581.721 1317.779, 581.727 1320.638, 581.734 1323.523, 581.743 1326.408, 581.751 1329.267, 581.759 1332.073, 581.764 1334.800, 581.766 1337.422, 581.764 1339.913, 581.756 1342.247, 581.742 1344.396, 581.719 1344.396, 571.719 1344.396, 570.425 1344.396, 560.425 1344.396, 557.969 1344.396, 547.969 1344.396, 544.740 1344.396, 534.740 1344.396, 531.124 1344.396, 521.124 1344.396, 517.508 1344.396, 507.508 1344.396, 504.279 1344.396, 494.279 1344.396, 491.824 1344.396, 481.824 1344.396, 480.529 1344.396, 470.782 1344.396, 462.969 1344.396, 457.478 1344.396, 454.694 1341.928, 454.707 1339.343, 454.715 1336.656, 454.720 1333.886, 454.721 1331.049, 454.720 1328.161, 454.717 1325.240, 454.713 1322.301, 454.708 1319.363, 454.703 1316.442, 454.698 1313.554, 454.695 1310.716, 454.694 1310.172, 452.285 1309.604, 449.868 1309.016, 447.450 1308.411, 445.037 1307.790, 442.635 1307.156, 440.252 1306.512, 437.892 1305.861, 435.562 1305.205, 433.269 1304.546, 431.019 1303.888, 428.818 1303.232, 426.673 1308.876, 424.110 1315.015, 421.322 1321.485, 418.384 1328.120, 415.372 1334.756, 412.359 1341.226, 409.421 1347.365, 406.633 1353.009, 404.070 1357.992, 401.807 1362.149, 399.919 1365.314, 398.482 1367.323, 397.569 1367.323, 395.930 1367.323, 394.443 1367.324, 393.058 1367.324, 391.723 1367.324, 390.388 1367.325, 389.003 1367.325, 387.516 1367.324, 385.877 1367.324, 384.035 1367.323, 381.939 1367.321, 379.538 " />
            <path fill="none" stroke-width="3.0" stroke-linecap="butt" stroke-opacity="1.0" stroke="rgb(0, 0, 0)" stroke-linejoin="miter" d=" M 1019.493, 404.932 1009.516, 404.260 1003.504, 403.856 993.527, 404.527 987.515, 404.932 977.717, 406.935 972.178, 408.067 962.732, 411.349 957.634, 413.121 948.697, 417.606 944.024, 419.952 935.738, 425.549 931.489, 428.420 923.983, 435.027 920.169, 438.384 913.562, 445.890 910.205, 449.704 904.607, 457.991 901.737, 462.239 897.251, 471.177 894.906, 475.849 891.623, 485.295 889.852, 490.393 887.849, 500.190 886.717, 505.729 886.045, 515.707 885.641, 521.719 886.312, 531.696 886.717, 537.708 888.720, 547.506 889.852, 553.045 893.134, 562.491 894.906, 567.589 899.391, 576.526 901.737, 581.198 907.334, 589.485 910.205, 593.734 916.812, 601.240 920.169, 605.054 927.675, 611.661 931.489, 615.018 939.776, 620.616 944.024, 623.486 952.962, 627.972 957.634, 630.317 967.080, 633.600 972.178, 635.371 981.975, 637.374 987.515, 638.506 997.492, 639.178 1003.504, 639.582 1013.481, 638.911 1019.493, 638.506 1029.291, 636.503 1034.830, 635.371 1044.276, 632.089 1049.374, 630.317 1058.311, 625.831 1062.983, 623.486 1071.270, 617.889 1075.519, 615.018 1083.025, 608.411 1086.839, 605.054 1093.446, 597.548 1096.803, 593.734 1102.401, 585.447 1105.271, 581.198 1109.757, 572.261 1112.102, 567.589 1115.384, 558.143 1117.156, 553.045 1119.158, 543.248 1120.291, 537.708 1120.962, 527.731 1121.367, 521.719 1120.695, 511.741 1120.291, 505.729 1118.288, 495.932 1117.156, 490.393 1113.873, 480.947 1112.102, 475.849 1107.616, 466.912 1105.271, 462.239 1099.673, 453.953 1096.803, 449.704 1090.196, 442.198 1086.839, 438.384 1079.332, 431.777 1075.519, 428.420 1067.232, 422.822 1062.983, 419.952 1054.046, 415.466 1049.374, 413.121 1039.928, 409.838 1034.830, 408.067 1025.033, 406.064 1019.493, 404.932 " />
            <path fill="none" stroke-width="3.0" stroke-linecap="butt" stroke-opacity="1.0" stroke="rgb(0, 0, 0)" stroke-linejoin="miter" d=" M 1002.828, 432.632 1012.809, 433.251 1015.243, 433.402 1025.004, 435.577 1028.094, 436.265 1037.377, 439.982 1041.246, 441.531 1049.824, 446.670 1054.565, 449.511 1054.561, 449.511 1047.490, 456.582 1040.419, 463.653 1033.348, 470.724 1026.277, 477.795 1019.206, 484.867 1012.135, 491.938 1005.064, 499.009 997.994, 506.080 990.923, 513.151 983.852, 520.223 976.781, 527.294 969.710, 534.365 962.639, 541.436 955.568, 548.507 948.497, 555.578 941.426, 562.650 934.355, 569.721 931.165, 572.911 925.944, 564.382 924.320, 561.730 920.327, 552.562 919.480, 550.615 916.801, 540.981 916.434, 539.664 915.083, 529.755 914.976, 528.972 914.898, 518.973 914.896, 518.640 915.985, 508.762 918.036, 499.438 920.840, 490.765 924.187, 482.840 927.870, 475.760 931.680, 469.624 935.409, 464.528 939.477, 459.739 945.060, 454.559 952.023, 449.297 960.232, 444.263 969.240, 439.920 969.552, 439.770 978.979, 436.433 979.848, 436.126 989.609, 433.950 990.985, 433.643 1000.949, 432.792 1002.828, 432.632 " />
            <path fill="none" stroke-width="3.0" stroke-linecap="butt" stroke-opacity="1.0" stroke="rgb(0, 0, 0)" stroke-linejoin="miter" d=" M 1182.363, 454.748 1182.349, 454.748 1182.370, 454.748 1182.363, 454.748 " />
            <path fill="none" stroke-width="3.0" stroke-linecap="butt" stroke-opacity="1.0" stroke="rgb(0, 0, 0)" stroke-linejoin="miter" d=" M 1060.189, 485.486 1067.254, 478.409 1074.318, 471.331 1075.472, 470.175 1075.787, 470.362 1077.378, 472.765 1079.870, 476.880 1082.874, 482.564 1086.005, 489.678 1088.874, 498.082 1091.095, 507.635 1092.211, 517.572 1092.281, 518.197 1092.073, 528.194 1092.044, 529.627 1090.384, 539.488 1089.997, 541.785 1086.838, 551.273 1085.754, 554.531 1081.158, 563.413 1078.926, 567.725 1073.052, 575.818 1069.127, 581.226 1061.594, 587.802 1055.909, 592.765 1047.453, 598.102 1042.746, 601.073 1033.537, 604.969 1029.811, 606.546 1020.092, 608.900 1017.275, 609.582 1007.309, 610.411 1005.310, 610.578 995.327, 610.001 994.089, 609.930 984.254, 608.122 983.782, 608.036 974.563, 605.292 966.603, 602.096 960.073, 598.844 955.147, 595.934 951.995, 593.762 953.154, 592.604 954.230, 591.523 955.251, 590.494 956.243, 589.491 957.236, 588.487 958.256, 587.458 959.332, 586.377 960.491, 585.219 961.762, 583.958 963.171, 582.569 964.747, 581.025 966.517, 579.301 973.284, 581.432 980.029, 582.918 986.747, 583.754 993.432, 583.934 1000.081, 583.454 1006.688, 582.310 1013.248, 580.496 1019.756, 578.008 1026.208, 574.842 1032.597, 570.992 1038.920, 566.454 1045.172, 561.224 1050.941, 554.204 1055.532, 546.978 1059.053, 539.646 1061.609, 532.308 1063.309, 525.065 1064.259, 518.019 1064.566, 511.268 1064.336, 504.915 1063.677, 499.060 1062.694, 493.803 1061.496, 489.245 1060.189, 485.486 " />
            <path fill="none" stroke-width="3.0" stroke-linecap="butt" stroke-opacity="1.0" stroke="rgb(0, 0, 0)" stroke-linejoin="miter" d=" M 1178.365, 484.062 1184.986, 484.066 1193.266, 484.077 1202.968, 484.094 1212.968, 484.113 1213.855, 484.115 1223.855, 484.137 1225.691, 484.141 1235.691, 484.163 1238.237, 484.169 1248.237, 484.192 1251.279, 484.200 1261.278, 484.223 1264.536, 484.231 1274.536, 484.255 1277.793, 484.262 1287.793, 484.286 1290.814, 484.293 1300.814, 484.315 1310.814, 484.337 1315.175, 484.347 1315.195, 490.593 1315.208, 496.646 1315.215, 502.532 1315.217, 508.281 1315.215, 513.919 1315.210, 519.473 1315.203, 524.973 1315.196, 530.445 1315.188, 535.917 1315.181, 541.416 1315.176, 546.971 1315.175, 552.609 1309.338, 552.614 1303.248, 552.627 1296.966, 552.646 1290.552, 552.669 1284.071, 552.695 1277.582, 552.722 1271.149, 552.748 1264.832, 552.770 1258.694, 552.788 1252.797, 552.798 1247.201, 552.800 1241.970, 552.792 1239.833, 562.560 1237.695, 572.329 1235.943, 580.335 1232.773, 589.819 1229.603, 599.304 1227.076, 606.867 1222.901, 615.954 1218.726, 625.040 1215.469, 632.132 1210.324, 640.707 1205.179, 649.282 1201.222, 655.876 1195.151, 663.822 1189.080, 671.768 1184.437, 677.844 1177.497, 685.043 1170.556, 692.242 1165.214, 697.782 1157.477, 704.117 1149.740, 710.453 1143.653, 715.436 1135.212, 720.797 1126.770, 726.158 1119.855, 730.550 1110.822, 734.841 1101.789, 739.132 1093.919, 742.871 1084.427, 746.018 1074.935, 749.164 1065.947, 752.143 1056.141, 754.101 1046.334, 756.058 1036.528, 758.016 1036.040, 758.113 1026.068, 758.871 1016.097, 759.628 1006.126, 760.386 1004.296, 760.525 994.303, 760.164 984.309, 759.803 977.807, 759.568 967.910, 758.135 958.013, 756.701 953.005, 755.975 943.319, 753.489 933.633, 751.003 929.876, 750.039 920.503, 746.553 911.131, 743.067 908.406, 742.054 899.431, 737.644 890.456, 733.234 888.582, 732.313 880.067, 727.070 871.552, 721.827 870.388, 721.110 862.374, 715.129 854.359, 709.149 853.811, 708.739 846.320, 702.114 838.836, 695.494 831.880, 688.310 825.449, 681.668 819.030, 674.000 813.636, 667.556 807.756, 659.467 803.382, 653.449 798.047, 644.991 794.674, 639.644 804.674, 639.638 806.941, 639.637 813.019, 639.630 819.082, 639.623 825.145, 639.615 831.223, 639.608 837.333, 639.603 843.490, 639.602 849.711, 639.604 856.010, 639.611 862.404, 639.624 868.909, 639.644 874.700, 646.461 881.657, 653.449 889.207, 660.006 889.730, 660.460 897.716, 666.480 898.869, 667.349 907.246, 672.811 909.023, 673.969 917.755, 678.842 920.142, 680.174 929.195, 684.421 932.175, 685.819 941.514, 689.394 945.073, 690.756 954.656, 693.611 958.784, 694.840 968.564, 696.924 973.258, 697.925 983.178, 699.191 988.446, 699.864 998.438, 700.272 1004.296, 700.511 1014.276, 699.872 1024.004, 699.249 1033.851, 697.505 1043.697, 695.761 1053.293, 692.947 1062.889, 690.133 1063.110, 690.068 1072.338, 686.214 1081.565, 682.360 1081.975, 682.189 1090.714, 677.327 1099.452, 672.464 1100.026, 672.145 1108.148, 666.311 1116.270, 660.477 1116.996, 659.955 1124.369, 653.199 1131.741, 646.443 1132.617, 645.640 1139.107, 638.032 1145.597, 630.424 1146.624, 629.220 1152.104, 620.856 1157.585, 612.491 1158.748, 610.715 1163.112, 601.717 1167.476, 592.720 1168.724, 590.145 1171.895, 580.661 1175.065, 571.177 1176.284, 567.531 1178.226, 557.721 1180.168, 547.911 1181.162, 542.891 1181.840, 536.744 1182.262, 530.793 1182.458, 525.046 1182.451, 519.514 1182.271, 514.204 1181.943, 509.127 1181.493, 504.292 1180.950, 499.708 1180.338, 495.383 1179.686, 491.328 1179.020, 487.551 1178.365, 484.062 " />
            <path fill="none" stroke-width="3.0" stroke-linecap="butt" stroke-opacity="1.0" stroke="rgb(0, 0, 0)" stroke-linejoin="miter" d=" M 1290.814, 484.293 1300.814, 484.315 1310.814, 484.337 1315.175, 484.347 " />
            <path fill="none" stroke-width="3.0" stroke-linecap="butt" stroke-opacity="1.0" stroke="rgb(0, 0, 0)" stroke-linejoin="miter" d=" M 689.106, 588.550 694.810, 588.554 " />
            <path fill="none" stroke-width="3.0" stroke-linecap="butt" stroke-opacity="1.0" stroke="rgb(0, 0, 0)" stroke-linejoin="miter" d=" M 794.674, 639.644 804.674, 639.638 806.941, 639.637 " />
            <path fill="none" stroke-width="3.0" stroke-linecap="butt" stroke-opacity="1.0" stroke="rgb(0, 0, 0)" stroke-linejoin="miter" d=" M 905.188, 827.604 907.671, 822.131 917.260, 824.969 924.092, 826.992 933.827, 829.279 940.460, 830.837 950.308, 832.572 956.757, 833.707 966.687, 834.893 972.969, 835.643 982.948, 836.288 989.079, 836.684 999.079, 836.801 1005.072, 836.871 1015.064, 836.476 1020.932, 836.245 1030.893, 835.357 1036.643, 834.845 1046.551, 833.487 1052.190, 832.714 1062.025, 830.906 1067.556, 829.890 1077.303, 827.657 1082.726, 826.415 1092.372, 823.780 1097.684, 822.329 1100.632, 828.796 1103.405, 834.869 1106.026, 840.605 1108.521, 846.060 1110.916, 851.290 1113.235, 856.351 1115.504, 861.300 1117.747, 866.192 1119.991, 871.085 1122.260, 876.034 1124.579, 881.095 1126.974, 886.325 1129.012, 886.325 1130.928, 886.325 1132.756, 886.325 1134.512, 886.325 1136.208, 886.325 1139.485, 886.325 1141.094, 886.325 1144.285, 886.325 1145.980, 886.325 1147.662, 886.345 1147.670, 888.359 1147.680, 891.763 1147.685, 896.341 1147.688, 901.899 1147.688, 908.239 1147.686, 915.166 1147.683, 922.485 1147.679, 929.999 1147.676, 937.513 1147.672, 944.832 1147.671, 951.759 1147.671, 958.099 1137.671, 958.104 1136.672, 958.104 1126.672, 958.106 1118.137, 958.107 1108.137, 958.107 1098.137, 958.107 1093.610, 958.108 1083.610, 958.107 1073.610, 958.107 1064.635, 958.106 1054.635, 958.106 1044.635, 958.105 1034.635, 958.104 1032.756, 958.104 1022.756, 958.103 1012.756, 958.102 1002.756, 958.101 999.518, 958.101 989.518, 958.100 979.518, 958.098 969.518, 958.097 966.463, 958.097 956.463, 958.096 946.463, 958.095 936.463, 958.094 935.136, 958.093 925.136, 958.092 915.136, 958.091 907.080, 958.090 897.080, 958.089 887.080, 958.088 883.840, 958.088 873.840, 958.088 863.840, 958.087 857.983, 958.087 858.017, 953.340 858.031, 948.159 858.028, 942.606 858.011, 936.744 857.982, 930.634 857.944, 924.338 857.901, 917.918 857.855, 911.436 857.808, 904.954 857.765, 898.534 857.727, 892.237 857.698, 886.127 859.576, 886.109 861.407, 886.097 863.177, 886.090 864.957, 886.088 866.690, 886.090 868.403, 886.095 870.124, 886.101 871.817, 886.108 873.490, 886.115 875.190, 886.121 878.635, 886.127 880.364, 882.329 882.332, 877.999 884.506, 873.211 886.851, 868.043 889.333, 862.571 891.919, 856.870 894.573, 851.016 897.261, 845.087 899.949, 839.158 902.603, 833.305 905.188, 827.604 " />
            <path fill="none" stroke-width="3.0" stroke-linecap="butt" stroke-opacity="1.0" stroke="rgb(0, 0, 0)" stroke-linejoin="miter" d=" M 1134.512, 886.325 1139.485, 886.325 1144.285, 886.325 " />
            <path fill="none" stroke-width="3.0" stroke-linecap="butt" stroke-opacity="1.0" stroke="rgb(0, 0, 0)" stroke-linejoin="miter" d=" M 1136.208, 886.325 1139.485, 886.325 " />
            <path fill="none" stroke-width="3.0" stroke-linecap="butt" stroke-opacity="1.0" stroke="rgb(0, 0, 0)" stroke-linejoin="miter" d=" M 1141.094, 886.325 1144.285, 886.325 " />
            <path fill="none" stroke-width="3.0" stroke-linecap="butt" stroke-opacity="1.0" stroke="rgb(0, 0, 0)" stroke-linejoin="miter" d=" M 883.840, 958.088 873.840, 958.088 863.840, 958.087 857.983, 958.087 " />
        </g>
    </g>
</svg>
